{"glyphs":{"0":{"ha":889,"x_min":78,"x_max":811,"o":"m 586 1014 q 811 783 811 1014 l 811 231 q 586 0 811 0 l 304 0 q 78 231 78 0 l 78 783 q 304 1014 78 1014 l 586 1014 m 183 247 q 324 104 183 104 l 565 104 q 706 247 706 104 l 706 767 q 565 910 706 910 l 324 910 q 183 767 183 910 l 183 247 z "},"1":{"ha":369,"x_min":35,"x_max":289,"o":"m 108 1014 q 289 831 289 1014 l 289 0 l 183 0 l 183 811 q 86 910 183 910 l 35 910 l 35 1014 l 108 1014 z "},"2":{"ha":819,"x_min":83,"x_max":753,"o":"m 507 1014 q 753 782 753 1014 l 753 707 q 519 469 753 469 l 336 469 q 189 318 189 469 l 189 104 l 733 104 l 733 0 l 83 0 l 83 328 q 315 565 83 565 l 501 565 q 650 715 650 565 l 650 772 q 496 910 650 910 l 101 910 l 101 1014 l 507 1014 z "},"3":{"ha":775,"x_min":58,"x_max":721,"o":"m 486 1014 q 713 783 713 1014 l 713 689 q 685 578 713 624 q 603 513 658 533 q 721 329 721 471 l 721 219 q 494 0 721 0 l 58 0 l 58 104 l 475 104 q 617 236 617 104 l 617 339 q 467 464 617 464 l 83 464 l 83 564 l 467 564 q 610 681 610 564 l 610 767 q 471 910 610 910 l 64 910 l 64 1014 l 486 1014 z "},"4":{"ha":796,"x_min":33,"x_max":764,"o":"m 435 1014 l 143 326 l 565 326 l 565 1014 l 669 1014 l 669 326 l 764 326 l 764 228 l 669 228 l 669 0 l 565 0 l 565 228 l 33 228 l 33 321 l 331 1014 l 435 1014 z "},"5":{"ha":797,"x_min":88,"x_max":747,"o":"m 701 1014 l 701 910 l 193 910 l 193 576 l 532 576 q 747 357 747 576 l 747 240 q 511 0 747 0 l 88 0 l 88 104 l 499 104 q 643 251 643 104 l 643 347 q 513 481 643 481 l 89 481 l 89 1014 l 701 1014 z "},"6":{"ha":864,"x_min":78,"x_max":789,"o":"m 763 1014 l 763 910 l 324 910 q 183 767 183 910 l 183 247 q 324 104 183 104 l 557 104 q 689 238 689 104 l 689 351 q 558 483 689 483 l 239 483 l 239 581 l 576 581 q 789 364 789 581 l 789 217 q 576 0 789 0 l 304 0 q 78 231 78 0 l 78 783 q 304 1014 78 1014 l 763 1014 z "},"7":{"ha":718,"x_min":35,"x_max":678,"o":"m 678 1014 l 678 922 l 274 0 l 157 0 l 558 910 l 35 910 l 35 1014 l 678 1014 z "},"8":{"ha":839,"x_min":54,"x_max":785,"o":"m 550 1014 q 776 783 776 1014 l 776 689 q 749 578 776 624 q 667 513 722 533 q 785 329 785 471 l 785 219 q 558 0 785 0 l 281 0 q 54 219 54 0 l 54 329 q 172 513 54 471 q 90 579 117 535 q 63 689 63 624 l 63 783 q 289 1014 63 1014 l 550 1014 m 160 233 q 299 101 160 101 l 539 101 q 679 233 679 101 l 679 346 q 531 471 679 471 l 308 471 q 160 346 160 471 l 160 233 m 164 674 q 308 557 164 557 l 531 557 q 674 674 674 557 l 674 769 q 533 913 674 913 l 304 913 q 164 769 164 913 l 164 674 z "},"9":{"ha":858,"x_min":69,"x_max":781,"o":"m 554 1014 q 781 783 781 1014 l 781 231 q 554 0 781 0 l 111 0 l 111 104 l 535 104 q 675 247 675 104 l 675 767 q 535 910 675 910 l 303 910 q 172 776 172 910 l 172 665 q 300 533 172 533 l 619 533 l 619 436 l 282 436 q 69 653 69 436 l 69 797 q 282 1014 69 1014 l 554 1014 z "},"\u0017":{"ha":328,"x_min":0,"x_max":0,"o":""}," ":{"ha":328,"x_min":0,"x_max":0,"o":""},"!":{"ha":275,"x_min":88,"x_max":189,"o":"m 189 1014 l 189 274 l 88 274 l 88 1014 l 189 1014 m 189 161 l 189 0 l 88 0 l 88 161 l 189 161 z "},"\"":{"ha":456,"x_min":68,"x_max":389,"o":"m 68 619 m 389 1014 l 389 751 l 363 619 l 314 619 l 288 751 l 288 1014 l 389 1014 m 169 1014 l 169 751 l 143 619 l 94 619 l 68 751 l 68 1014 l 169 1014 z "},"#":{"ha":854,"x_min":68,"x_max":786,"o":"m 301 1014 l 301 713 l 551 713 l 551 1014 l 624 1014 l 624 713 l 786 713 l 786 639 l 624 639 l 624 376 l 786 376 l 786 301 l 624 301 l 624 0 l 551 0 l 551 301 l 301 301 l 301 0 l 229 0 l 229 301 l 68 301 l 68 376 l 229 376 l 229 639 l 68 639 l 68 713 l 229 713 l 229 1014 l 301 1014 m 301 376 l 551 376 l 551 639 l 301 639 l 301 376 z "},"$":{"ha":751,"x_min":67,"x_max":701,"o":"m 426 1100 l 426 857 l 669 857 l 669 769 l 258 769 q 165 683 165 769 l 165 626 q 251 547 165 547 l 543 547 q 701 399 701 547 l 701 293 q 531 132 701 132 l 426 132 l 426 -112 l 353 -112 l 353 132 l 74 132 l 74 219 l 504 219 q 603 306 603 219 l 603 388 q 518 467 603 467 l 226 467 q 67 615 67 467 l 67 697 q 233 857 67 857 l 353 857 l 353 1100 l 426 1100 z "},"%":{"ha":1204,"x_min":78,"x_max":1126,"o":"m 78 0 m 954 1014 l 311 0 l 228 0 l 872 1014 l 954 1014 m 997 565 q 1126 432 1126 565 l 1126 132 q 997 0 1126 0 l 843 0 q 713 132 713 0 l 713 432 q 843 565 713 565 l 997 565 m 783 143 q 856 69 783 69 l 985 69 q 1056 143 1056 69 l 1056 421 q 985 494 1056 494 l 856 494 q 783 421 783 494 l 783 143 m 363 1013 q 492 879 492 1013 l 492 579 q 363 447 492 447 l 208 447 q 78 579 78 447 l 78 879 q 208 1013 78 1013 l 363 1013 m 149 590 q 221 517 149 517 l 350 517 q 421 590 421 517 l 421 868 q 350 942 421 942 l 221 942 q 149 868 149 942 l 149 590 z "},"&":{"ha":833,"x_min":54,"x_max":785,"o":"m 517 1014 l 517 914 l 301 914 q 161 771 161 914 l 161 710 q 306 593 161 593 l 781 593 l 781 503 l 644 503 l 644 100 l 785 100 l 785 0 l 281 0 q 54 219 54 0 l 54 365 q 174 547 54 507 q 90 615 117 569 q 63 725 63 660 l 63 783 q 289 1014 63 1014 l 517 1014 m 156 233 q 296 100 156 100 l 549 100 l 549 503 l 306 503 q 156 378 156 503 l 156 233 z "},"'":{"ha":238,"x_min":68,"x_max":169,"o":"m 169 1014 l 169 751 l 143 619 l 94 619 l 68 751 l 68 1014 l 169 1014 z "},"(":{"ha":529,"x_min":135,"x_max":478,"o":"m 478 1296 q 374 1119 421 1213 q 294 927 328 1026 q 241 722 260 828 q 222 506 222 615 q 241 289 222 394 q 294 84 260 183 q 374 -108 328 -15 q 478 -285 421 -201 l 399 -285 q 292 -108 340 -201 q 208 85 243 -15 q 154 290 174 185 q 135 506 135 396 q 154 721 135 615 q 208 926 174 826 q 292 1119 243 1026 q 399 1296 340 1213 l 478 1296 z "},")":{"ha":531,"x_min":53,"x_max":396,"o":"m 131 1296 q 238 1119 189 1213 q 322 926 286 1026 q 376 721 357 826 q 396 506 396 615 q 376 290 396 396 q 322 85 357 185 q 238 -108 286 -15 q 131 -285 189 -201 l 53 -285 q 156 -108 108 -201 q 236 84 203 -15 q 288 289 269 183 q 307 506 307 394 q 288 722 307 615 q 236 927 269 828 q 156 1119 203 1026 q 53 1296 108 1213 l 131 1296 z "},"*":{"ha":788,"x_min":89,"x_max":697,"o":"m 364 744 l 351 1014 l 436 1014 l 424 744 l 671 839 l 697 756 l 443 683 l 607 472 l 538 421 l 393 647 l 247 421 l 179 474 l 343 685 l 89 757 l 117 840 l 364 744 z "},"+":{"ha":908,"x_min":68,"x_max":840,"o":"m 497 903 l 497 551 l 840 551 l 840 463 l 497 463 l 497 111 l 411 111 l 411 463 l 68 463 l 68 551 l 411 551 l 411 903 l 497 903 z "},",":{"ha":238,"x_min":68,"x_max":169,"o":"m 169 163 l 169 14 l 136 -186 l 85 -186 l 101 4 l 68 4 l 68 163 l 169 163 z "},"-":{"ha":467,"x_min":35,"x_max":432,"o":"m 432 485 l 432 399 l 35 399 l 35 485 l 432 485 z "},".":{"ha":238,"x_min":68,"x_max":169,"o":"m 169 161 l 169 0 l 68 0 l 68 161 l 169 161 z "},"/":{"ha":535,"x_min":0,"x_max":535,"o":"m 535 1215 l 88 -162 l 0 -162 l 447 1215 l 535 1215 z "},":":{"ha":238,"x_min":68,"x_max":169,"o":"m 68 111 m 169 722 l 169 561 l 68 561 l 68 722 l 169 722 m 169 272 l 169 111 l 68 111 l 68 272 l 169 272 z "},";":{"ha":238,"x_min":68,"x_max":169,"o":"m 68 0 m 169 274 l 169 125 l 136 -75 l 85 -75 l 101 115 l 68 115 l 68 274 l 169 274 m 169 722 l 169 561 l 68 561 l 68 722 l 169 722 z "},"<":{"ha":908,"x_min":68,"x_max":840,"o":"m 840 900 l 840 808 l 160 507 l 840 206 l 840 114 l 68 464 l 68 551 l 840 900 z "},"=":{"ha":908,"x_min":68,"x_max":840,"o":"m 840 742 l 840 653 l 68 653 l 68 742 l 840 742 m 840 361 l 840 272 l 68 272 l 68 361 l 840 361 z "},">":{"ha":908,"x_min":68,"x_max":840,"o":"m 68 114 l 68 206 l 749 506 l 68 808 l 68 900 l 840 550 l 840 463 l 68 114 z "},"?":{"ha":694,"x_min":35,"x_max":661,"o":"m 465 1014 q 661 808 661 1014 l 661 679 q 483 486 661 486 l 344 486 q 275 411 275 486 l 275 274 l 174 274 l 174 429 q 313 571 174 571 l 457 571 q 563 685 563 571 l 563 789 q 444 914 563 914 l 35 914 l 35 1014 l 465 1014 m 275 161 l 275 0 l 174 0 l 174 161 l 275 161 z "},"@":{"ha":925,"x_min":78,"x_max":847,"o":"m 671 921 q 846 742 846 921 l 846 285 q 671 106 846 106 l 511 106 q 378 151 421 106 q 336 285 336 196 l 336 418 q 378 551 336 507 q 511 594 421 594 l 708 594 l 708 519 l 522 519 q 415 410 415 519 l 415 296 q 522 185 415 185 l 656 185 q 764 296 764 185 l 764 725 q 656 835 764 835 l 274 835 q 167 725 167 835 l 167 -42 q 274 -153 167 -153 l 847 -153 l 847 -246 l 251 -246 q 78 -65 78 -246 l 78 742 q 251 921 78 921 l 671 921 z "},"A":{"ha":981,"x_min":17,"x_max":965,"o":"m 708 344 l 485 894 l 126 0 l 17 0 l 429 1014 l 543 1014 l 965 0 l 847 0 l 747 247 l 282 247 l 319 344 l 708 344 z "},"B":{"ha":872,"x_min":88,"x_max":818,"o":"m 583 1014 q 810 783 810 1014 l 810 689 q 783 579 810 624 q 700 513 756 535 q 818 329 818 471 l 818 219 q 590 0 818 0 l 88 0 l 88 1014 l 583 1014 m 193 104 l 572 104 q 713 236 713 104 l 713 343 q 563 468 713 468 l 249 468 l 249 561 l 563 561 q 707 678 707 561 l 707 767 q 567 910 707 910 l 193 910 l 193 104 z "},"C":{"ha":788,"x_min":78,"x_max":724,"o":"m 724 1014 l 724 910 l 324 910 q 183 767 183 910 l 183 247 q 324 104 183 104 l 724 104 l 724 0 l 304 0 q 78 231 78 0 l 78 783 q 304 1014 78 1014 l 724 1014 z "},"D":{"ha":928,"x_min":88,"x_max":850,"o":"m 583 1014 q 850 742 850 1014 l 850 272 q 583 0 850 0 l 249 0 l 249 104 l 572 104 q 744 279 744 104 l 744 735 q 572 910 744 910 l 193 910 l 193 0 l 88 0 l 88 1014 l 583 1014 z "},"E":{"ha":783,"x_min":88,"x_max":724,"o":"m 718 1014 l 718 910 l 193 910 l 193 565 l 710 565 l 710 465 l 193 465 l 193 104 l 724 104 l 724 0 l 88 0 l 88 1014 l 718 1014 z "},"F":{"ha":746,"x_min":88,"x_max":699,"o":"m 699 1014 l 699 910 l 193 910 l 193 550 l 692 550 l 692 450 l 193 450 l 193 0 l 88 0 l 88 1014 l 699 1014 z "},"G":{"ha":899,"x_min":78,"x_max":821,"o":"m 797 1014 l 797 910 l 324 910 q 183 767 183 910 l 183 247 q 324 104 183 104 l 596 104 q 722 231 722 104 l 722 483 l 435 483 l 435 576 l 821 576 l 821 206 q 617 0 821 0 l 304 0 q 78 231 78 0 l 78 783 q 304 1014 78 1014 l 797 1014 z "},"H":{"ha":900,"x_min":88,"x_max":813,"o":"m 193 1014 l 193 571 l 707 571 l 707 1014 l 813 1014 l 813 0 l 707 0 l 707 472 l 193 472 l 193 0 l 88 0 l 88 1014 l 193 1014 z "},"I":{"ha":279,"x_min":88,"x_max":193,"o":"m 193 1014 l 193 0 l 88 0 l 88 1014 l 193 1014 z "},"J":{"ha":629,"x_min":35,"x_max":547,"o":"m 547 1014 l 547 231 q 321 0 547 0 l 35 0 l 35 104 l 301 104 q 442 247 442 104 l 442 1014 l 547 1014 z "},"K":{"ha":889,"x_min":88,"x_max":828,"o":"m 193 1014 l 193 526 l 197 526 l 650 1014 l 775 1014 l 322 539 l 635 539 q 828 342 828 539 l 828 0 l 722 0 l 722 325 q 600 450 722 450 l 193 450 l 193 0 l 88 0 l 88 1014 l 193 1014 z "},"L":{"ha":747,"x_min":88,"x_max":711,"o":"m 193 1014 l 193 104 l 711 104 l 711 0 l 88 0 l 88 1014 l 193 1014 z "},"M":{"ha":1117,"x_min":88,"x_max":1029,"o":"m 213 1014 l 561 115 l 906 1014 l 1029 1014 l 1029 0 l 931 0 l 931 818 l 611 0 l 510 0 l 185 819 l 185 0 l 88 0 l 88 1014 l 213 1014 z "},"N":{"ha":949,"x_min":88,"x_max":863,"o":"m 203 1014 l 760 188 l 760 1014 l 863 1014 l 863 0 l 769 0 l 190 850 l 190 0 l 88 0 l 88 1014 l 203 1014 z "},"O":{"ha":929,"x_min":78,"x_max":853,"o":"m 626 1014 q 853 783 853 1014 l 853 231 q 626 0 853 0 l 304 0 q 78 231 78 0 l 78 783 q 304 1014 78 1014 l 626 1014 m 183 247 q 324 104 183 104 l 606 104 q 746 247 746 104 l 746 767 q 606 910 746 910 l 324 910 q 183 767 183 910 l 183 247 z "},"P":{"ha":871,"x_min":88,"x_max":836,"o":"m 610 1014 q 836 782 836 1014 l 836 683 q 610 451 836 451 l 249 451 l 249 550 l 600 550 q 731 685 731 550 l 731 775 q 600 910 731 910 l 193 910 l 193 0 l 88 0 l 88 1014 l 610 1014 z "},"Q":{"ha":929,"x_min":78,"x_max":853,"o":"m 626 1014 q 853 783 853 1014 l 853 236 q 626 6 853 6 l 496 6 l 496 -62 q 621 -189 496 -189 l 718 -189 l 718 -285 l 611 -285 q 408 -76 408 -285 l 408 6 l 304 6 q 78 236 78 6 l 78 783 q 304 1014 78 1014 l 626 1014 m 183 251 q 324 108 183 108 l 606 108 q 746 251 746 108 l 746 767 q 606 910 746 910 l 324 910 q 183 767 183 910 l 183 251 z "},"R":{"ha":897,"x_min":88,"x_max":892,"o":"m 615 1014 q 810 818 810 1014 l 810 667 q 762 526 810 575 q 618 478 714 478 l 388 478 l 892 0 l 751 0 l 249 481 l 249 563 l 600 563 q 707 668 707 563 l 707 801 q 600 910 707 910 l 193 910 l 193 0 l 88 0 l 88 1014 l 615 1014 z "},"S":{"ha":835,"x_min":60,"x_max":772,"o":"m 739 1014 l 739 910 l 289 910 q 164 781 164 910 l 164 683 q 276 568 164 568 l 575 568 q 772 367 772 568 l 772 222 q 554 0 772 0 l 67 0 l 67 104 l 543 104 q 669 233 669 104 l 669 358 q 557 474 669 474 l 257 474 q 60 675 60 474 l 60 792 q 278 1014 60 1014 l 739 1014 z "},"T":{"ha":783,"x_min":35,"x_max":747,"o":"m 747 1014 l 747 910 l 446 910 l 446 0 l 340 0 l 340 910 l 35 910 l 35 1014 l 747 1014 z "},"U":{"ha":928,"x_min":82,"x_max":846,"o":"m 188 1014 l 188 247 q 328 104 188 104 l 599 104 q 740 247 740 104 l 740 1014 l 846 1014 l 846 231 q 619 0 846 0 l 308 0 q 82 231 82 0 l 82 1014 l 188 1014 z "},"V":{"ha":969,"x_min":17,"x_max":954,"o":"m 135 1014 l 489 126 l 842 1014 l 954 1014 l 547 0 l 432 0 l 17 1014 l 135 1014 z "},"W":{"ha":1290,"x_min":19,"x_max":1272,"o":"m 129 1014 l 349 178 l 596 1014 l 701 1014 l 940 175 l 1163 1014 l 1272 1014 l 996 0 l 889 0 l 647 865 l 397 0 l 292 0 l 19 1014 l 129 1014 z "},"X":{"ha":910,"x_min":19,"x_max":890,"o":"m 167 1014 l 465 596 l 772 1014 l 889 1014 l 524 513 l 890 0 l 765 0 l 456 435 l 138 0 l 19 0 l 397 517 l 44 1014 l 167 1014 z "},"Y":{"ha":906,"x_min":14,"x_max":892,"o":"m 136 1014 l 456 521 l 774 1014 l 892 1014 l 508 431 l 508 0 l 401 0 l 401 431 l 14 1014 l 136 1014 z "},"Z":{"ha":856,"x_min":71,"x_max":782,"o":"m 776 1014 l 776 919 l 200 104 l 782 104 l 782 0 l 71 0 l 71 108 l 640 910 l 72 910 l 72 1014 l 776 1014 z "},"[":{"ha":531,"x_min":118,"x_max":511,"o":"m 511 1296 l 511 1207 l 206 1207 l 206 -196 l 511 -196 l 511 -285 l 118 -285 l 118 1296 l 511 1296 z "},"\\":{"ha":535,"x_min":0,"x_max":535,"o":"m 88 1215 l 535 -162 l 447 -162 l 0 1215 l 88 1215 z "},"]":{"ha":531,"x_min":19,"x_max":413,"o":"m 413 1296 l 413 -285 l 19 -285 l 19 -196 l 325 -196 l 325 1207 l 19 1207 l 19 1296 l 413 1296 z "},"^":{"ha":940,"x_min":88,"x_max":854,"o":"m 515 1153 l 854 361 l 764 361 l 471 1056 l 178 361 l 88 361 l 428 1153 l 515 1153 z "},"_":{"ha":747,"x_min":0,"x_max":750,"o":"m 750 -106 l 750 -192 l 0 -192 l 0 -106 l 750 -106 z "},"`":{"ha":547,"x_min":94,"x_max":451,"o":"m 214 1136 l 451 822 l 351 822 l 94 1136 l 214 1136 z "},"a":{"ha":824,"x_min":72,"x_max":747,"o":"m 521 725 q 747 493 747 725 l 747 232 q 521 0 747 0 l 265 0 q 72 192 72 0 l 72 249 q 256 410 72 410 l 590 410 l 590 328 l 282 328 q 169 232 169 328 l 169 199 q 283 88 169 88 l 504 88 q 646 235 646 88 l 646 483 q 508 626 646 626 l 94 626 l 94 725 l 521 725 z "},"b":{"ha":851,"x_min":82,"x_max":774,"o":"m 183 1024 l 183 249 q 326 100 183 100 l 528 100 q 672 249 672 100 l 672 476 q 528 624 672 624 l 239 624 l 239 725 l 547 725 q 774 493 774 725 l 774 232 q 547 0 774 0 l 308 0 q 82 232 82 0 l 82 1024 l 183 1024 z "},"c":{"ha":693,"x_min":78,"x_max":628,"o":"m 628 725 l 628 624 l 324 624 q 179 476 179 624 l 179 249 q 324 100 179 100 l 628 100 l 628 0 l 304 0 q 78 232 78 0 l 78 493 q 304 725 78 725 l 628 725 z "},"d":{"ha":851,"x_min":78,"x_max":769,"o":"m 769 1024 l 769 232 q 543 0 769 0 l 304 0 q 78 232 78 0 l 78 493 q 304 725 78 725 l 613 725 l 613 624 l 324 624 q 179 476 179 624 l 179 249 q 324 100 179 100 l 524 100 q 668 249 668 100 l 668 1024 l 769 1024 z "},"e":{"ha":824,"x_min":78,"x_max":753,"o":"m 558 725 q 753 533 753 725 l 753 475 q 569 315 753 315 l 233 315 l 233 397 l 542 397 q 654 493 654 397 l 654 526 q 540 638 654 638 l 321 638 q 178 490 178 638 l 178 242 q 317 99 178 99 l 729 99 l 729 0 l 304 0 q 78 232 78 0 l 78 493 q 304 725 78 725 l 558 725 z "},"f":{"ha":385,"x_min":82,"x_max":349,"o":"m 349 1024 l 349 939 l 279 939 q 182 839 182 939 l 182 725 l 343 725 l 343 635 l 182 635 l 182 0 l 82 0 l 82 842 q 258 1024 82 1024 l 349 1024 z "},"g":{"ha":849,"x_min":78,"x_max":769,"o":"m 543 725 q 769 493 769 725 l 769 0 q 543 -246 769 -246 l 211 -246 l 211 -147 l 524 -147 q 668 11 668 -147 l 668 476 q 524 624 668 624 l 324 624 q 179 476 179 624 l 179 278 q 324 139 179 139 l 613 139 l 613 44 l 304 44 q 78 263 78 44 l 78 493 q 304 725 78 725 l 543 725 z "},"h":{"ha":861,"x_min":88,"x_max":779,"o":"m 189 1024 l 189 725 l 553 725 q 779 493 779 725 l 779 0 l 678 0 l 678 476 q 533 624 678 624 l 189 624 l 189 0 l 88 0 l 88 1024 l 189 1024 z "},"i":{"ha":275,"x_min":88,"x_max":189,"o":"m 189 718 l 189 0 l 88 0 l 88 718 l 189 718 m 189 1024 l 189 863 l 88 863 l 88 1024 l 189 1024 z "},"j":{"ha":358,"x_min":14,"x_max":271,"o":"m 271 718 l 271 -36 q 79 -246 271 -246 l 14 -246 l 14 -147 l 60 -147 q 169 -25 169 -147 l 169 718 l 271 718 m 271 1024 l 271 863 l 169 863 l 169 1024 l 271 1024 z "},"k":{"ha":813,"x_min":88,"x_max":751,"o":"m 189 1024 l 189 393 l 194 393 l 542 725 l 660 725 l 322 407 l 565 407 q 751 221 751 407 l 751 0 l 650 0 l 650 203 q 522 332 650 332 l 189 332 l 189 0 l 88 0 l 88 1024 l 189 1024 z "},"l":{"ha":275,"x_min":88,"x_max":189,"o":"m 189 1024 l 189 0 l 88 0 l 88 1024 l 189 1024 z "},"m":{"ha":1232,"x_min":88,"x_max":1151,"o":"m 928 725 q 1151 493 1151 725 l 1151 0 l 1050 0 l 1050 476 q 908 625 1050 625 l 668 625 l 668 0 l 571 0 l 571 625 l 188 625 l 188 0 l 88 0 l 88 725 l 928 725 z "},"n":{"ha":861,"x_min":88,"x_max":779,"o":"m 553 725 q 779 493 779 725 l 779 0 l 678 0 l 678 476 q 533 624 678 624 l 189 624 l 189 0 l 88 0 l 88 725 l 553 725 z "},"o":{"ha":854,"x_min":78,"x_max":776,"o":"m 550 725 q 776 493 776 725 l 776 232 q 550 0 776 0 l 304 0 q 78 232 78 0 l 78 493 q 304 725 78 725 l 550 725 m 179 249 q 324 100 179 100 l 531 100 q 675 249 675 100 l 675 476 q 531 624 675 624 l 324 624 q 179 476 179 624 l 179 249 z "},"p":{"ha":851,"x_min":82,"x_max":774,"o":"m 547 725 q 774 493 774 725 l 774 232 q 547 0 774 0 l 239 0 l 239 100 l 528 100 q 672 249 672 100 l 672 476 q 528 624 672 624 l 326 624 q 183 476 183 624 l 183 -246 l 82 -246 l 82 493 q 308 725 82 725 l 547 725 z "},"q":{"ha":851,"x_min":78,"x_max":769,"o":"m 543 725 q 769 493 769 725 l 769 -246 l 668 -246 l 668 476 q 524 624 668 624 l 324 624 q 179 476 179 624 l 179 249 q 324 100 179 100 l 613 100 l 613 0 l 304 0 q 78 232 78 0 l 78 493 q 304 725 78 725 l 543 725 z "},"r":{"ha":549,"x_min":88,"x_max":510,"o":"m 510 724 l 510 624 l 332 624 q 189 475 189 624 l 189 0 l 88 0 l 88 492 q 314 724 88 724 l 510 724 z "},"s":{"ha":751,"x_min":61,"x_max":696,"o":"m 664 725 l 664 638 l 253 638 q 160 551 160 638 l 160 494 q 246 415 160 415 l 538 415 q 696 267 696 415 l 696 161 q 525 0 696 0 l 68 0 l 68 88 l 499 88 q 597 174 597 88 l 597 256 q 513 335 597 335 l 221 335 q 61 483 61 335 l 61 565 q 228 725 61 725 l 664 725 z "},"t":{"ha":474,"x_min":39,"x_max":433,"o":"m 276 961 l 276 725 l 433 725 l 433 635 l 276 635 l 276 0 l 175 0 l 175 635 l 39 635 l 39 725 l 175 725 l 175 961 l 276 961 z "},"u":{"ha":851,"x_min":82,"x_max":769,"o":"m 183 724 l 183 249 q 326 100 183 100 l 525 100 q 669 249 669 100 l 669 724 l 769 724 l 769 232 q 543 0 769 0 l 308 0 q 82 232 82 0 l 82 724 l 183 724 z "},"v":{"ha":826,"x_min":14,"x_max":813,"o":"m 125 725 l 418 104 l 707 725 l 813 725 l 472 0 l 363 0 l 14 725 l 125 725 z "},"w":{"ha":1179,"x_min":18,"x_max":1161,"o":"m 122 725 l 318 131 l 542 725 l 642 725 l 858 129 l 1058 725 l 1161 725 l 911 0 l 811 0 l 590 613 l 364 0 l 265 0 l 18 725 l 122 725 z "},"x":{"ha":833,"x_min":14,"x_max":821,"o":"m 819 725 l 486 367 l 821 0 l 693 0 l 417 306 l 133 0 l 14 0 l 357 369 l 36 725 l 161 725 l 429 431 l 700 725 l 819 725 z "},"y":{"ha":861,"x_min":82,"x_max":774,"o":"m 183 725 l 183 278 q 326 139 183 139 l 672 139 l 672 725 l 774 725 l 774 0 q 547 -246 774 -246 l 215 -246 l 215 -147 l 528 -147 q 672 11 672 -147 l 672 44 l 308 44 q 82 263 82 44 l 82 725 l 183 725 z "},"z":{"ha":783,"x_min":71,"x_max":717,"o":"m 711 725 l 711 639 l 204 94 l 717 94 l 717 0 l 71 0 l 71 99 l 569 631 l 74 631 l 74 725 l 711 725 z "},"{":{"ha":531,"x_min":71,"x_max":511,"o":"m 511 1296 l 511 1207 l 440 1207 q 333 1086 333 1207 l 333 692 q 261 506 333 560 q 333 319 333 451 l 333 -75 q 440 -196 333 -196 l 511 -196 l 511 -285 l 422 -285 q 247 -87 247 -285 l 247 322 q 136 461 247 461 l 71 461 l 71 550 l 136 550 q 247 689 247 550 l 247 1099 q 422 1296 247 1296 l 511 1296 z "},"|":{"ha":563,"x_min":238,"x_max":325,"o":"m 325 1299 l 325 -285 l 238 -285 l 238 1299 l 325 1299 z "},"}":{"ha":531,"x_min":19,"x_max":460,"o":"m 107 1296 q 283 1099 283 1296 l 283 689 q 393 550 283 550 l 460 550 l 460 461 l 393 461 q 283 322 283 461 l 283 -87 q 107 -285 283 -285 l 19 -285 l 19 -196 l 90 -196 q 196 -75 196 -196 l 196 319 q 269 506 196 453 q 196 692 196 558 l 196 1086 q 90 1207 196 1207 l 19 1207 l 19 1296 l 107 1296 z "},"~":{"ha":908,"x_min":68,"x_max":840,"o":"m 68 540 q 142 595 100 574 q 246 617 183 617 q 358 597 307 617 q 457 554 408 578 q 554 511 506 531 q 660 492 603 492 q 748 512 707 492 q 840 585 789 532 l 840 482 q 763 427 804 447 q 663 407 721 407 q 552 426 603 407 q 453 469 501 446 q 356 511 406 492 q 249 531 307 531 q 158 510 197 531 q 68 442 119 490 l 68 540 z "}," ":{"ha":328,"x_min":0,"x_max":0,"o":""},"¡":{"ha":275,"x_min":86,"x_max":188,"o":"m 86 -246 l 86 494 l 188 494 l 188 -246 l 86 -246 m 86 607 l 86 768 l 188 768 l 188 607 l 86 607 z "},"¢":{"ha":719,"x_min":78,"x_max":628,"o":"m 449 1100 l 449 857 l 628 857 l 628 756 l 324 756 q 179 608 179 756 l 179 381 q 324 232 179 232 l 628 232 l 628 132 l 449 132 l 449 -112 l 375 -112 l 375 132 l 304 132 q 78 364 78 132 l 78 625 q 304 857 78 857 l 375 857 l 375 1100 l 449 1100 z "},"£":{"ha":774,"x_min":56,"x_max":713,"o":"m 713 1014 l 713 910 l 421 910 q 281 767 281 910 l 281 575 l 694 575 l 694 490 l 281 490 l 281 104 l 713 104 l 713 0 l 175 0 l 175 490 l 56 490 l 56 575 l 175 575 l 175 783 q 401 1014 175 1014 l 713 1014 z "},"¤":{"ha":908,"x_min":150,"x_max":758,"o":"m 278 750 q 371 774 314 774 l 536 774 q 629 750 593 774 l 696 818 l 758 756 l 678 674 q 683 625 683 653 l 683 389 q 678 340 683 358 l 758 258 l 696 196 l 629 264 q 536 240 596 240 l 371 240 q 278 263 313 240 l 213 196 l 150 258 l 229 339 q 225 389 225 361 l 225 625 q 229 674 225 653 l 150 756 l 213 818 l 278 750 m 289 397 q 381 304 289 304 l 526 304 q 619 397 619 304 l 619 617 q 526 710 619 710 l 381 710 q 289 617 289 710 l 289 397 z "},"¥":{"ha":929,"x_min":14,"x_max":892,"o":"m 136 1014 l 456 521 l 774 1014 l 892 1014 l 524 454 l 715 454 l 715 368 l 508 368 l 508 215 l 715 215 l 715 129 l 508 129 l 508 0 l 401 0 l 401 129 l 201 129 l 201 215 l 401 215 l 401 368 l 201 368 l 201 454 l 385 454 l 14 1014 l 136 1014 z "},"¦":{"ha":563,"x_min":238,"x_max":325,"o":"m 325 1299 l 325 646 l 238 646 l 238 1299 l 325 1299 m 325 368 l 325 -285 l 238 -285 l 238 368 l 325 368 z "},"§":{"ha":751,"x_min":61,"x_max":700,"o":"m 664 1015 l 664 928 l 253 928 q 160 842 160 928 l 160 785 q 246 706 160 706 l 542 706 q 700 557 700 706 l 700 10 q 529 -151 700 -151 l 72 -151 l 72 -64 l 503 -64 q 601 22 601 -64 l 601 104 q 517 183 601 183 l 221 183 q 61 332 61 183 l 61 856 q 228 1015 61 1015 l 664 1015 m 221 625 q 188 626 203 625 q 160 632 174 628 l 160 343 q 246 264 160 264 l 542 264 q 573 262 558 264 q 601 257 588 260 l 601 546 q 517 625 601 625 l 221 625 z "},"¨":{"ha":488,"x_min":68,"x_max":419,"o":"m 419 1039 l 419 878 l 325 878 l 325 1039 l 419 1039 m 163 1039 l 163 878 l 68 878 l 68 1039 l 163 1039 z "},"©":{"ha":1086,"x_min":78,"x_max":1008,"o":"m 808 1014 q 1008 808 1008 1014 l 1008 203 q 808 0 1008 0 l 276 0 q 78 206 78 0 l 78 808 q 276 1014 78 1014 l 808 1014 m 140 213 q 283 65 140 65 l 801 65 q 944 210 944 65 l 944 801 q 801 947 944 947 l 283 947 q 140 801 140 947 l 140 213 m 682 767 l 682 704 l 476 704 q 413 639 413 704 l 413 372 q 476 307 413 307 l 682 307 l 682 244 l 467 244 q 349 364 349 244 l 349 647 q 467 767 349 767 l 682 767 z "},"ª":{"ha":543,"x_min":68,"x_max":476,"o":"m 346 1014 q 476 879 476 1014 l 476 639 q 346 506 476 506 l 189 506 q 68 626 68 506 l 68 714 q 172 810 68 810 l 360 810 l 360 751 l 189 751 q 135 704 135 751 l 135 631 q 197 567 135 567 l 336 567 q 408 642 408 567 l 408 871 q 336 947 408 947 l 81 947 l 81 1014 l 346 1014 z "},"«":{"ha":694,"x_min":35,"x_max":660,"o":"m 35 0 m 660 725 l 660 624 l 371 363 l 660 100 l 660 0 l 304 328 l 304 399 l 660 725 m 390 725 l 390 624 l 101 363 l 390 100 l 390 0 l 35 328 l 35 399 l 390 725 z "},"¬":{"ha":908,"x_min":68,"x_max":840,"o":"m 840 608 l 840 111 l 753 111 l 753 519 l 68 519 l 68 608 l 840 608 z "},"­":{"ha":467,"x_min":35,"x_max":432,"o":"m 35 399 m 432 485 l 432 399 l 35 399 l 35 485 l 432 485 z "},"®":{"ha":1086,"x_min":78,"x_max":1008,"o":"m 808 1014 q 1008 808 1008 1014 l 1008 203 q 808 0 1008 0 l 276 0 q 78 206 78 0 l 78 808 q 276 1014 78 1014 l 808 1014 m 140 213 q 283 65 140 65 l 801 65 q 944 210 944 65 l 944 801 q 801 947 944 947 l 283 947 q 140 801 140 947 l 140 213 m 626 767 q 726 665 726 767 l 726 588 q 702 515 726 540 q 628 489 678 489 l 547 489 l 769 244 l 692 244 l 463 492 l 463 542 l 618 542 q 665 589 665 542 l 665 657 q 618 704 665 704 l 417 704 l 417 244 l 354 244 l 354 767 l 626 767 z "},"¯":{"ha":729,"x_min":68,"x_max":661,"o":"m 661 972 l 661 892 l 68 892 l 68 972 l 661 972 z "},"°":{"ha":594,"x_min":68,"x_max":526,"o":"m 379 1014 q 526 865 526 1014 l 526 629 q 379 481 526 481 l 214 481 q 68 629 68 481 l 68 865 q 214 1014 68 1014 l 379 1014 m 132 638 q 224 544 132 544 l 369 544 q 463 638 463 544 l 463 857 q 369 950 463 950 l 224 950 q 132 857 132 950 l 132 638 z "},"±":{"ha":908,"x_min":68,"x_max":840,"o":"m 68 57 m 497 1042 l 497 690 l 840 690 l 840 601 l 497 601 l 497 250 l 411 250 l 411 601 l 68 601 l 68 690 l 411 690 l 411 1042 l 497 1042 m 840 146 l 840 57 l 68 57 l 68 146 l 840 146 z "},"²":{"ha":500,"x_min":60,"x_max":446,"o":"m 60 447 m 319 1013 q 446 882 446 1013 l 446 821 q 331 701 446 701 l 204 701 q 131 624 131 701 l 131 517 l 436 517 l 436 447 l 60 447 l 60 628 q 193 765 60 765 l 319 765 q 376 825 376 765 l 376 876 q 313 942 376 942 l 69 942 l 69 1013 l 319 1013 z "},"³":{"ha":468,"x_min":46,"x_max":419,"o":"m 46 447 m 285 1013 q 417 879 417 1013 l 417 828 q 375 732 417 760 q 410 696 400 719 q 419 640 419 672 l 419 579 q 290 447 419 447 l 46 447 l 46 517 l 281 517 q 350 589 350 517 l 350 644 q 304 699 350 699 l 57 699 l 57 765 l 304 765 q 347 821 347 765 l 347 869 q 278 942 347 942 l 49 942 l 49 1013 l 285 1013 z "},"´":{"ha":547,"x_min":94,"x_max":451,"o":"m 451 1136 l 194 822 l 94 822 l 331 1136 l 451 1136 z "},"¶":{"ha":763,"x_min":49,"x_max":676,"o":"m 676 1014 l 676 -246 l 585 -246 l 585 924 l 264 924 q 140 799 140 924 l 140 661 q 264 535 140 535 l 525 535 l 525 449 l 254 449 q 49 660 49 449 l 49 804 q 254 1014 49 1014 l 676 1014 z "},"·":{"ha":238,"x_min":68,"x_max":169,"o":"m 68 365 m 169 526 l 169 365 l 68 365 l 68 526 l 169 526 z "},"¸":{"ha":418,"x_min":108,"x_max":289,"o":"m 289 -31 l 188 -285 l 108 -285 l 183 -31 l 289 -31 z "},"¹":{"ha":293,"x_min":33,"x_max":233,"o":"m 33 447 m 108 1013 q 233 886 233 1013 l 233 447 l 163 447 l 163 874 q 94 942 163 942 l 33 942 l 33 1013 l 108 1013 z "},"º":{"ha":557,"x_min":68,"x_max":489,"o":"m 360 1014 q 489 879 489 1014 l 489 639 q 360 506 489 506 l 197 506 q 68 639 68 506 l 68 879 q 197 1014 68 1014 l 360 1014 m 136 649 q 210 574 136 574 l 349 574 q 421 649 421 574 l 421 869 q 349 946 421 946 l 210 946 q 136 869 136 946 l 136 649 z "},"»":{"ha":694,"x_min":36,"x_max":660,"o":"m 304 0 l 304 101 l 593 361 l 304 625 l 304 725 l 660 397 l 660 326 l 304 0 m 36 0 l 36 101 l 325 361 l 36 625 l 36 725 l 392 397 l 392 326 l 36 0 z "},"¼":{"ha":1075,"x_min":78,"x_max":997,"o":"m 78 0 m 821 1014 l 178 0 l 94 0 l 739 1014 l 821 1014 m 153 1013 q 278 886 278 1013 l 278 447 l 207 447 l 207 874 q 139 942 207 942 l 78 942 l 78 1013 l 153 1013 m 811 565 l 631 167 l 886 167 l 886 565 l 956 565 l 956 167 l 997 167 l 997 100 l 956 100 l 956 0 l 886 0 l 886 100 l 556 100 l 556 160 l 746 565 l 811 565 z "},"½":{"ha":1101,"x_min":78,"x_max":1025,"o":"m 78 0 m 821 1014 l 178 0 l 94 0 l 739 1014 l 821 1014 m 153 1013 q 278 886 278 1013 l 278 447 l 207 447 l 207 874 q 139 942 207 942 l 78 942 l 78 1013 l 153 1013 m 899 565 q 1025 435 1025 565 l 1025 374 q 910 254 1025 254 l 783 254 q 710 176 710 254 l 710 69 l 1015 69 l 1015 0 l 639 0 l 639 181 q 772 318 639 318 l 899 318 q 956 378 956 318 l 956 429 q 892 494 956 494 l 649 494 l 649 565 l 899 565 z "},"¾":{"ha":1208,"x_min":76,"x_max":1131,"o":"m 76 0 m 956 1014 l 313 0 l 229 0 l 874 1014 l 956 1014 m 944 565 l 764 167 l 1019 167 l 1019 565 l 1089 565 l 1089 167 l 1131 167 l 1131 100 l 1089 100 l 1089 0 l 1019 0 l 1019 100 l 689 100 l 689 160 l 879 565 l 944 565 m 315 1013 q 447 879 447 1013 l 447 828 q 406 732 447 760 q 440 696 431 719 q 450 640 450 672 l 450 579 q 321 447 450 447 l 76 447 l 76 517 l 311 517 q 381 589 381 517 l 381 644 q 335 699 381 699 l 88 699 l 88 765 l 335 765 q 378 821 378 765 l 378 869 q 308 942 378 942 l 79 942 l 79 1013 l 315 1013 z "},"¿":{"ha":696,"x_min":36,"x_max":663,"o":"m 232 -246 q 36 -40 36 -246 l 36 89 q 214 282 36 282 l 353 282 q 422 357 422 282 l 422 494 l 524 494 l 524 339 q 385 197 524 197 l 240 197 q 135 83 135 197 l 135 -21 q 253 -146 135 -146 l 663 -146 l 663 -246 l 232 -246 m 422 607 l 422 768 l 524 768 l 524 607 l 422 607 z "},"À":{"ha":981,"x_min":17,"x_max":965,"o":"m 17 0 m 708 344 l 485 894 l 126 0 l 17 0 l 429 1014 l 543 1014 l 965 0 l 847 0 l 747 247 l 282 247 l 319 344 l 708 344 m 363 1382 l 600 1068 l 500 1068 l 243 1382 l 363 1382 z "},"Á":{"ha":981,"x_min":17,"x_max":965,"o":"m 17 0 m 708 344 l 485 894 l 126 0 l 17 0 l 429 1014 l 543 1014 l 965 0 l 847 0 l 747 247 l 282 247 l 319 344 l 708 344 m 736 1382 l 479 1068 l 379 1068 l 615 1382 l 736 1382 z "},"Â":{"ha":981,"x_min":17,"x_max":965,"o":"m 17 0 m 708 344 l 485 894 l 126 0 l 17 0 l 429 1014 l 543 1014 l 965 0 l 847 0 l 747 247 l 282 247 l 319 344 l 708 344 m 533 1382 l 749 1068 l 654 1068 l 493 1304 l 328 1068 l 232 1068 l 454 1382 l 533 1382 z "},"Ã":{"ha":981,"x_min":17,"x_max":965,"o":"m 17 0 m 708 344 l 485 894 l 126 0 l 17 0 l 429 1014 l 543 1014 l 965 0 l 847 0 l 747 247 l 282 247 l 319 344 l 708 344 m 788 1218 l 788 1138 l 194 1138 l 194 1218 l 788 1218 z "},"Ä":{"ha":981,"x_min":17,"x_max":965,"o":"m 17 0 m 708 344 l 485 894 l 126 0 l 17 0 l 429 1014 l 543 1014 l 965 0 l 847 0 l 747 247 l 282 247 l 319 344 l 708 344 m 664 1285 l 664 1124 l 569 1124 l 569 1285 l 664 1285 m 407 1285 l 407 1124 l 313 1124 l 313 1285 l 407 1285 z "},"Å":{"ha":981,"x_min":17,"x_max":965,"o":"m 17 0 m 708 344 l 485 894 l 126 0 l 17 0 l 429 1014 l 543 1014 l 965 0 l 847 0 l 747 247 l 282 247 l 319 344 l 708 344 m 544 1382 q 649 1288 649 1382 l 649 1164 q 544 1068 649 1068 l 432 1068 q 328 1164 328 1068 l 328 1288 q 432 1382 328 1382 l 544 1382 m 383 1172 q 442 1119 383 1119 l 535 1119 q 593 1172 593 1119 l 593 1279 q 535 1331 593 1331 l 442 1331 q 383 1279 383 1331 l 383 1172 z "},"Æ":{"ha":1268,"x_min":17,"x_max":1208,"o":"m 1203 1014 l 1203 910 l 678 910 l 678 565 l 1194 565 l 1194 465 l 678 465 l 678 104 l 1208 104 l 1208 0 l 572 0 l 572 247 l 261 247 l 293 344 l 572 344 l 572 910 l 421 910 l 125 0 l 17 0 l 357 1014 l 1203 1014 z "},"Ç":{"ha":788,"x_min":78,"x_max":724,"o":"m 78 0 m 724 1014 l 724 910 l 324 910 q 183 767 183 910 l 183 247 q 324 104 183 104 l 724 104 l 724 0 l 304 0 q 78 231 78 0 l 78 783 q 304 1014 78 1014 l 724 1014 m 501 -31 l 400 -285 l 321 -285 l 396 -31 l 501 -31 z "},"È":{"ha":783,"x_min":88,"x_max":724,"o":"m 88 0 m 718 1014 l 718 910 l 193 910 l 193 565 l 710 565 l 710 465 l 193 465 l 193 104 l 724 104 l 724 0 l 88 0 l 88 1014 l 718 1014 m 278 1382 l 515 1068 l 415 1068 l 158 1382 l 278 1382 z "},"É":{"ha":783,"x_min":88,"x_max":724,"o":"m 88 0 m 718 1014 l 718 910 l 193 910 l 193 565 l 710 565 l 710 465 l 193 465 l 193 104 l 724 104 l 724 0 l 88 0 l 88 1014 l 718 1014 m 650 1382 l 393 1068 l 293 1068 l 529 1382 l 650 1382 z "},"Ê":{"ha":783,"x_min":88,"x_max":724,"o":"m 88 0 m 718 1014 l 718 910 l 193 910 l 193 565 l 710 565 l 710 465 l 193 465 l 193 104 l 724 104 l 724 0 l 88 0 l 88 1014 l 718 1014 m 447 1382 l 663 1068 l 568 1068 l 407 1304 l 242 1068 l 146 1068 l 368 1382 l 447 1382 z "},"Ë":{"ha":783,"x_min":88,"x_max":724,"o":"m 88 0 m 718 1014 l 718 910 l 193 910 l 193 565 l 710 565 l 710 465 l 193 465 l 193 104 l 724 104 l 724 0 l 88 0 l 88 1014 l 718 1014 m 588 1285 l 588 1124 l 493 1124 l 493 1285 l 588 1285 m 331 1285 l 331 1124 l 236 1124 l 236 1285 l 331 1285 z "},"Ì":{"ha":389,"x_min":-43,"x_max":314,"o":"m 0 0 m 228 1014 l 228 0 l 122 0 l 122 1014 l 228 1014 m 76 1382 l 314 1068 l 214 1068 l -43 1382 l 76 1382 z "},"Í":{"ha":389,"x_min":75,"x_max":432,"o":"m 75 0 m 211 1014 l 211 0 l 106 0 l 106 1014 l 211 1014 m 432 1382 l 175 1068 l 75 1068 l 311 1382 l 432 1382 z "},"Î":{"ha":457,"x_min":-31,"x_max":486,"o":"m 0 0 m 282 1014 l 282 0 l 176 0 l 176 1014 l 282 1014 m 271 1382 l 486 1068 l 392 1068 l 231 1304 l 65 1068 l -31 1068 l 192 1382 l 271 1382 z "},"Ï":{"ha":374,"x_min":11,"x_max":363,"o":"m 11 0 m 240 1014 l 240 0 l 135 0 l 135 1014 l 240 1014 m 363 1285 l 363 1124 l 268 1124 l 268 1285 l 363 1285 m 106 1285 l 106 1124 l 11 1124 l 11 1285 l 106 1285 z "},"Ð":{"ha":928,"x_min":0,"x_max":850,"o":"m 88 565 l 88 1014 l 583 1014 q 850 742 850 1014 l 850 272 q 583 0 850 0 l 249 0 l 249 104 l 572 104 q 744 279 744 104 l 744 735 q 572 910 744 910 l 193 910 l 193 565 l 514 565 l 514 465 l 193 465 l 193 0 l 88 0 l 88 465 l 0 465 l 0 565 l 88 565 z "},"Ñ":{"ha":949,"x_min":88,"x_max":863,"o":"m 88 0 m 203 1014 l 760 188 l 760 1014 l 863 1014 l 863 0 l 769 0 l 190 850 l 190 0 l 88 0 l 88 1014 l 203 1014 m 771 1218 l 771 1138 l 178 1138 l 178 1218 l 771 1218 z "},"Ò":{"ha":929,"x_min":78,"x_max":853,"o":"m 78 0 m 626 1014 q 853 783 853 1014 l 853 231 q 626 0 853 0 l 304 0 q 78 231 78 0 l 78 783 q 304 1014 78 1014 l 626 1014 m 183 247 q 324 104 183 104 l 606 104 q 746 247 746 104 l 746 767 q 606 910 746 910 l 324 910 q 183 767 183 910 l 183 247 m 338 1382 l 575 1068 l 475 1068 l 218 1382 l 338 1382 z "},"Ó":{"ha":929,"x_min":78,"x_max":853,"o":"m 78 0 m 626 1014 q 853 783 853 1014 l 853 231 q 626 0 853 0 l 304 0 q 78 231 78 0 l 78 783 q 304 1014 78 1014 l 626 1014 m 183 247 q 324 104 183 104 l 606 104 q 746 247 746 104 l 746 767 q 606 910 746 910 l 324 910 q 183 767 183 910 l 183 247 m 711 1382 l 454 1068 l 354 1068 l 590 1382 l 711 1382 z "},"Ô":{"ha":929,"x_min":78,"x_max":853,"o":"m 78 0 m 626 1014 q 853 783 853 1014 l 853 231 q 626 0 853 0 l 304 0 q 78 231 78 0 l 78 783 q 304 1014 78 1014 l 626 1014 m 183 247 q 324 104 183 104 l 606 104 q 746 247 746 104 l 746 767 q 606 910 746 910 l 324 910 q 183 767 183 910 l 183 247 m 507 1382 l 722 1068 l 628 1068 l 467 1304 l 301 1068 l 206 1068 l 428 1382 l 507 1382 z "},"Õ":{"ha":929,"x_min":78,"x_max":853,"o":"m 78 0 m 626 1014 q 853 783 853 1014 l 853 231 q 626 0 853 0 l 304 0 q 78 231 78 0 l 78 783 q 304 1014 78 1014 l 626 1014 m 183 247 q 324 104 183 104 l 606 104 q 746 247 746 104 l 746 767 q 606 910 746 910 l 324 910 q 183 767 183 910 l 183 247 m 761 1218 l 761 1138 l 168 1138 l 168 1218 l 761 1218 z "},"Ö":{"ha":929,"x_min":78,"x_max":853,"o":"m 78 0 m 626 1014 q 853 783 853 1014 l 853 231 q 626 0 853 0 l 304 0 q 78 231 78 0 l 78 783 q 304 1014 78 1014 l 626 1014 m 183 247 q 324 104 183 104 l 606 104 q 746 247 746 104 l 746 767 q 606 910 746 910 l 324 910 q 183 767 183 910 l 183 247 m 642 1285 l 642 1124 l 547 1124 l 547 1285 l 642 1285 m 385 1285 l 385 1124 l 290 1124 l 290 1285 l 385 1285 z "},"×":{"ha":908,"x_min":150,"x_max":758,"o":"m 454 569 l 696 818 l 758 756 l 515 507 l 758 258 l 696 196 l 454 444 l 213 196 l 150 258 l 393 507 l 150 756 l 213 818 l 454 569 z "},"Ø":{"ha":929,"x_min":78,"x_max":853,"o":"m 853 1153 l 760 983 q 853 783 853 928 l 853 231 q 626 0 853 0 l 304 0 q 265 2 283 0 q 229 7 246 4 l 150 -139 l 78 -139 l 169 31 q 78 231 78 82 l 78 783 q 304 1014 78 1014 l 626 1014 q 700 1006 667 1014 l 781 1153 l 853 1153 m 183 247 q 225 132 183 167 l 646 906 q 606 910 626 910 l 324 910 q 183 767 183 910 l 183 247 m 746 767 q 704 881 746 844 l 283 107 q 303 105 293 106 q 324 104 313 104 l 606 104 q 746 247 746 104 l 746 767 z "},"Ù":{"ha":928,"x_min":82,"x_max":846,"o":"m 82 0 m 188 1014 l 188 247 q 328 104 188 104 l 599 104 q 740 247 740 104 l 740 1014 l 846 1014 l 846 231 q 619 0 846 0 l 308 0 q 82 231 82 0 l 82 1014 l 188 1014 m 336 1382 l 574 1068 l 474 1068 l 217 1382 l 336 1382 z "},"Ú":{"ha":928,"x_min":82,"x_max":846,"o":"m 82 0 m 188 1014 l 188 247 q 328 104 188 104 l 599 104 q 740 247 740 104 l 740 1014 l 846 1014 l 846 231 q 619 0 846 0 l 308 0 q 82 231 82 0 l 82 1014 l 188 1014 m 708 1382 l 451 1068 l 351 1068 l 588 1382 l 708 1382 z "},"Û":{"ha":928,"x_min":82,"x_max":846,"o":"m 82 0 m 188 1014 l 188 247 q 328 104 188 104 l 599 104 q 740 247 740 104 l 740 1014 l 846 1014 l 846 231 q 619 0 846 0 l 308 0 q 82 231 82 0 l 82 1014 l 188 1014 m 506 1382 l 721 1068 l 626 1068 l 465 1304 l 300 1068 l 204 1068 l 426 1382 l 506 1382 z "},"Ü":{"ha":928,"x_min":82,"x_max":846,"o":"m 82 0 m 188 1014 l 188 247 q 328 104 188 104 l 599 104 q 740 247 740 104 l 740 1014 l 846 1014 l 846 231 q 619 0 846 0 l 308 0 q 82 231 82 0 l 82 1014 l 188 1014 m 644 1285 l 644 1124 l 550 1124 l 550 1285 l 644 1285 m 388 1285 l 388 1124 l 293 1124 l 293 1285 l 388 1285 z "},"Ý":{"ha":906,"x_min":14,"x_max":892,"o":"m 14 0 m 136 1014 l 456 521 l 774 1014 l 892 1014 l 508 431 l 508 0 l 401 0 l 401 431 l 14 1014 l 136 1014 m 697 1382 l 440 1068 l 340 1068 l 576 1382 l 697 1382 z "},"Þ":{"ha":879,"x_min":88,"x_max":836,"o":"m 193 1014 l 193 801 l 569 801 q 836 529 836 801 l 836 433 q 569 161 836 161 l 244 161 l 244 260 l 558 260 q 731 435 731 260 l 731 522 q 558 697 731 697 l 193 697 l 193 0 l 88 0 l 88 1014 l 193 1014 z "},"ß":{"ha":1028,"x_min":88,"x_max":967,"o":"m 410 1024 q 613 815 613 1024 l 613 649 q 697 560 613 560 l 803 560 q 967 379 967 560 l 967 196 q 774 0 967 0 l 244 0 l 244 100 l 744 100 q 865 222 865 100 l 865 358 q 774 469 865 469 l 668 469 q 511 628 511 469 l 511 801 q 388 928 511 928 l 313 928 q 189 801 189 928 l 189 0 l 88 0 l 88 815 q 292 1024 88 1024 l 410 1024 z "},"à":{"ha":824,"x_min":72,"x_max":747,"o":"m 72 0 m 521 725 q 747 493 747 725 l 747 232 q 521 0 747 0 l 265 0 q 72 192 72 0 l 72 249 q 256 410 72 410 l 590 410 l 590 328 l 282 328 q 169 232 169 328 l 169 199 q 283 88 169 88 l 504 88 q 646 235 646 88 l 646 483 q 508 626 646 626 l 94 626 l 94 725 l 521 725 m 285 1136 l 522 822 l 422 822 l 165 1136 l 285 1136 z "},"á":{"ha":824,"x_min":72,"x_max":747,"o":"m 72 0 m 521 725 q 747 493 747 725 l 747 232 q 521 0 747 0 l 265 0 q 72 192 72 0 l 72 249 q 256 410 72 410 l 590 410 l 590 328 l 282 328 q 169 232 169 328 l 169 199 q 283 88 169 88 l 504 88 q 646 235 646 88 l 646 483 q 508 626 646 626 l 94 626 l 94 725 l 521 725 m 657 1136 l 400 822 l 300 822 l 536 1136 l 657 1136 z "},"â":{"ha":824,"x_min":72,"x_max":747,"o":"m 72 0 m 521 725 q 747 493 747 725 l 747 232 q 521 0 747 0 l 265 0 q 72 192 72 0 l 72 249 q 256 410 72 410 l 590 410 l 590 328 l 282 328 q 169 232 169 328 l 169 199 q 283 88 169 88 l 504 88 q 646 235 646 88 l 646 483 q 508 626 646 626 l 94 626 l 94 725 l 521 725 m 454 1136 l 669 822 l 575 822 l 414 1058 l 249 822 l 153 822 l 375 1136 l 454 1136 z "},"ã":{"ha":824,"x_min":72,"x_max":747,"o":"m 72 0 m 521 725 q 747 493 747 725 l 747 232 q 521 0 747 0 l 265 0 q 72 192 72 0 l 72 249 q 256 410 72 410 l 590 410 l 590 328 l 282 328 q 169 232 169 328 l 169 199 q 283 88 169 88 l 504 88 q 646 235 646 88 l 646 483 q 508 626 646 626 l 94 626 l 94 725 l 521 725 m 708 972 l 708 892 l 115 892 l 115 972 l 708 972 z "},"ä":{"ha":824,"x_min":72,"x_max":747,"o":"m 72 0 m 521 725 q 747 493 747 725 l 747 232 q 521 0 747 0 l 265 0 q 72 192 72 0 l 72 249 q 256 410 72 410 l 590 410 l 590 328 l 282 328 q 169 232 169 328 l 169 199 q 283 88 169 88 l 504 88 q 646 235 646 88 l 646 483 q 508 626 646 626 l 94 626 l 94 725 l 521 725 m 582 1039 l 582 878 l 488 878 l 488 1039 l 582 1039 m 325 1039 l 325 878 l 231 878 l 231 1039 l 325 1039 z "},"å":{"ha":824,"x_min":72,"x_max":747,"o":"m 72 0 m 521 725 q 747 493 747 725 l 747 232 q 521 0 747 0 l 265 0 q 72 192 72 0 l 72 249 q 256 410 72 410 l 590 410 l 590 328 l 282 328 q 169 232 169 328 l 169 199 q 283 88 169 88 l 504 88 q 646 235 646 88 l 646 483 q 508 626 646 626 l 94 626 l 94 725 l 521 725 m 468 1136 q 572 1042 572 1136 l 572 918 q 468 822 572 822 l 356 822 q 251 918 251 822 l 251 1042 q 356 1136 251 1136 l 468 1136 m 307 926 q 365 874 307 874 l 458 874 q 517 926 517 874 l 517 1033 q 458 1085 517 1085 l 365 1085 q 307 1033 307 1085 l 307 926 z "},"æ":{"ha":1393,"x_min":72,"x_max":1322,"o":"m 1128 725 q 1322 533 1322 725 l 1322 475 q 1139 315 1322 315 l 803 315 l 803 397 l 1111 397 q 1224 493 1224 397 l 1224 526 q 1110 638 1224 638 l 890 638 q 747 497 747 638 l 747 242 q 886 99 747 99 l 1299 99 l 1299 0 l 874 0 q 697 65 753 0 q 521 0 642 0 l 265 0 q 72 192 72 0 l 72 249 q 256 410 72 410 l 590 410 l 590 328 l 282 328 q 169 232 169 328 l 169 199 q 283 88 169 88 l 504 88 q 646 235 646 88 l 646 483 q 508 626 646 626 l 94 626 l 94 725 l 521 725 q 697 660 640 725 q 874 725 754 725 l 1128 725 z "},"ç":{"ha":693,"x_min":78,"x_max":628,"o":"m 78 0 m 628 725 l 628 624 l 324 624 q 179 476 179 624 l 179 249 q 324 100 179 100 l 628 100 l 628 0 l 304 0 q 78 232 78 0 l 78 493 q 304 725 78 725 l 628 725 m 454 -31 l 353 -285 l 274 -285 l 349 -31 l 454 -31 z "},"è":{"ha":824,"x_min":78,"x_max":753,"o":"m 78 0 m 558 725 q 753 533 753 725 l 753 475 q 569 315 753 315 l 233 315 l 233 397 l 542 397 q 654 493 654 397 l 654 526 q 540 638 654 638 l 321 638 q 178 490 178 638 l 178 242 q 317 99 178 99 l 729 99 l 729 0 l 304 0 q 78 232 78 0 l 78 493 q 304 725 78 725 l 558 725 m 292 1136 l 529 822 l 429 822 l 172 1136 l 292 1136 z "},"é":{"ha":824,"x_min":78,"x_max":753,"o":"m 78 0 m 558 725 q 753 533 753 725 l 753 475 q 569 315 753 315 l 233 315 l 233 397 l 542 397 q 654 493 654 397 l 654 526 q 540 638 654 638 l 321 638 q 178 490 178 638 l 178 242 q 317 99 178 99 l 729 99 l 729 0 l 304 0 q 78 232 78 0 l 78 493 q 304 725 78 725 l 558 725 m 665 1136 l 408 822 l 308 822 l 544 1136 l 665 1136 z "},"ê":{"ha":824,"x_min":78,"x_max":753,"o":"m 78 0 m 558 725 q 753 533 753 725 l 753 475 q 569 315 753 315 l 233 315 l 233 397 l 542 397 q 654 493 654 397 l 654 526 q 540 638 654 638 l 321 638 q 178 490 178 638 l 178 242 q 317 99 178 99 l 729 99 l 729 0 l 304 0 q 78 232 78 0 l 78 493 q 304 725 78 725 l 558 725 m 460 1136 l 675 822 l 581 822 l 419 1058 l 254 822 l 158 822 l 381 1136 l 460 1136 z "},"ë":{"ha":824,"x_min":78,"x_max":753,"o":"m 78 0 m 558 725 q 753 533 753 725 l 753 475 q 569 315 753 315 l 233 315 l 233 397 l 542 397 q 654 493 654 397 l 654 526 q 540 638 654 638 l 321 638 q 178 490 178 638 l 178 242 q 317 99 178 99 l 729 99 l 729 0 l 304 0 q 78 232 78 0 l 78 493 q 304 725 78 725 l 558 725 m 594 1039 l 594 878 l 500 878 l 500 1039 l 594 1039 m 338 1039 l 338 878 l 243 878 l 243 1039 l 338 1039 z "},"ì":{"ha":385,"x_min":-25,"x_max":332,"o":"m 0 0 m 94 1136 l 332 822 l 232 822 l -25 1136 l 94 1136 m 299 725 l 299 0 l 197 0 l 197 725 l 299 725 z "},"í":{"ha":385,"x_min":53,"x_max":410,"o":"m 53 0 m 410 1136 l 153 822 l 53 822 l 289 1136 l 410 1136 m 189 725 l 189 0 l 88 0 l 88 725 l 189 725 z "},"î":{"ha":486,"x_min":-15,"x_max":501,"o":"m 0 0 m 293 725 l 293 0 l 192 0 l 192 725 l 293 725 m 286 1136 l 501 822 l 407 822 l 246 1058 l 81 822 l -15 822 l 207 1136 l 286 1136 z "},"ï":{"ha":390,"x_min":19,"x_max":371,"o":"m 19 0 m 371 1039 l 371 878 l 276 878 l 276 1039 l 371 1039 m 114 1039 l 114 878 l 19 878 l 19 1039 l 114 1039 m 247 725 l 247 0 l 146 0 l 146 725 l 247 725 z "},"ð":{"ha":851,"x_min":78,"x_max":851,"o":"m 614 871 q 371 1024 540 975 l 528 1024 q 642 968 590 1007 q 725 871 693 929 l 851 871 l 851 817 l 750 817 q 769 689 769 756 l 769 232 q 543 0 769 0 l 304 0 q 78 232 78 0 l 78 456 q 304 688 78 688 l 613 688 l 613 588 l 324 588 q 179 439 179 588 l 179 249 q 324 100 179 100 l 524 100 q 668 249 668 100 l 668 689 q 643 817 668 758 l 253 817 l 253 871 l 614 871 z "},"ñ":{"ha":861,"x_min":88,"x_max":779,"o":"m 88 0 m 553 725 q 779 493 779 725 l 779 0 l 678 0 l 678 476 q 533 624 678 624 l 189 624 l 189 0 l 88 0 l 88 725 l 553 725 m 726 972 l 726 892 l 133 892 l 133 972 l 726 972 z "},"ò":{"ha":854,"x_min":78,"x_max":776,"o":"m 78 0 m 550 725 q 776 493 776 725 l 776 232 q 550 0 776 0 l 304 0 q 78 232 78 0 l 78 493 q 304 725 78 725 l 550 725 m 179 249 q 324 100 179 100 l 531 100 q 675 249 675 100 l 675 476 q 531 624 675 624 l 324 624 q 179 476 179 624 l 179 249 m 299 1136 l 536 822 l 436 822 l 179 1136 l 299 1136 z "},"ó":{"ha":854,"x_min":78,"x_max":776,"o":"m 78 0 m 550 725 q 776 493 776 725 l 776 232 q 550 0 776 0 l 304 0 q 78 232 78 0 l 78 493 q 304 725 78 725 l 550 725 m 179 249 q 324 100 179 100 l 531 100 q 675 249 675 100 l 675 476 q 531 624 675 624 l 324 624 q 179 476 179 624 l 179 249 m 672 1136 l 415 822 l 315 822 l 551 1136 l 672 1136 z "},"ô":{"ha":854,"x_min":78,"x_max":776,"o":"m 78 0 m 550 725 q 776 493 776 725 l 776 232 q 550 0 776 0 l 304 0 q 78 232 78 0 l 78 493 q 304 725 78 725 l 550 725 m 179 249 q 324 100 179 100 l 531 100 q 675 249 675 100 l 675 476 q 531 624 675 624 l 324 624 q 179 476 179 624 l 179 249 m 469 1136 l 685 822 l 590 822 l 429 1058 l 264 822 l 168 822 l 390 1136 l 469 1136 z "},"õ":{"ha":854,"x_min":78,"x_max":776,"o":"m 78 0 m 550 725 q 776 493 776 725 l 776 232 q 550 0 776 0 l 304 0 q 78 232 78 0 l 78 493 q 304 725 78 725 l 550 725 m 179 249 q 324 100 179 100 l 531 100 q 675 249 675 100 l 675 476 q 531 624 675 624 l 324 624 q 179 476 179 624 l 179 249 m 724 972 l 724 892 l 131 892 l 131 972 l 724 972 z "},"ö":{"ha":854,"x_min":78,"x_max":776,"o":"m 78 0 m 550 725 q 776 493 776 725 l 776 232 q 550 0 776 0 l 304 0 q 78 232 78 0 l 78 493 q 304 725 78 725 l 550 725 m 179 249 q 324 100 179 100 l 531 100 q 675 249 675 100 l 675 476 q 531 624 675 624 l 324 624 q 179 476 179 624 l 179 249 m 603 1039 l 603 878 l 508 878 l 508 1039 l 603 1039 m 346 1039 l 346 878 l 251 878 l 251 1039 l 346 1039 z "},"÷":{"ha":908,"x_min":68,"x_max":840,"o":"m 68 113 m 840 551 l 840 463 l 68 463 l 68 551 l 840 551 m 506 274 l 506 113 l 404 113 l 404 274 l 506 274 m 506 907 l 506 746 l 404 746 l 404 907 l 506 907 z "},"ø":{"ha":854,"x_min":76,"x_max":776,"o":"m 775 907 l 656 707 q 776 493 776 661 l 776 232 q 550 0 776 0 l 304 0 q 236 6 264 0 l 150 -139 l 76 -139 l 175 26 q 78 232 78 78 l 78 493 q 304 725 78 725 l 550 725 q 571 724 561 725 q 592 722 581 724 l 701 907 l 775 907 m 675 476 q 599 613 675 583 l 293 101 q 308 100 300 100 q 324 100 315 100 l 531 100 q 675 249 675 100 l 675 476 m 179 249 q 232 122 179 158 l 532 624 l 531 624 l 324 624 q 179 476 179 624 l 179 249 z "},"ù":{"ha":851,"x_min":82,"x_max":769,"o":"m 82 0 m 183 724 l 183 249 q 326 100 183 100 l 525 100 q 669 249 669 100 l 669 724 l 769 724 l 769 232 q 543 0 769 0 l 308 0 q 82 232 82 0 l 82 724 l 183 724 m 297 1136 l 535 822 l 435 822 l 178 1136 l 297 1136 z "},"ú":{"ha":851,"x_min":82,"x_max":769,"o":"m 82 0 m 183 724 l 183 249 q 326 100 183 100 l 525 100 q 669 249 669 100 l 669 724 l 769 724 l 769 232 q 543 0 769 0 l 308 0 q 82 232 82 0 l 82 724 l 183 724 m 671 1136 l 414 822 l 314 822 l 550 1136 l 671 1136 z "},"û":{"ha":851,"x_min":82,"x_max":769,"o":"m 82 0 m 183 724 l 183 249 q 326 100 183 100 l 525 100 q 669 249 669 100 l 669 724 l 769 724 l 769 232 q 543 0 769 0 l 308 0 q 82 232 82 0 l 82 724 l 183 724 m 467 1136 l 682 822 l 588 822 l 426 1058 l 261 822 l 165 822 l 388 1136 l 467 1136 z "},"ü":{"ha":851,"x_min":82,"x_max":769,"o":"m 82 0 m 183 724 l 183 249 q 326 100 183 100 l 525 100 q 669 249 669 100 l 669 724 l 769 724 l 769 232 q 543 0 769 0 l 308 0 q 82 232 82 0 l 82 724 l 183 724 m 601 1039 l 601 878 l 507 878 l 507 1039 l 601 1039 m 344 1039 l 344 878 l 250 878 l 250 1039 l 344 1039 z "},"ý":{"ha":861,"x_min":82,"x_max":774,"o":"m 82 0 m 183 725 l 183 278 q 326 139 183 139 l 672 139 l 672 725 l 774 725 l 774 0 q 547 -246 774 -246 l 215 -246 l 215 -147 l 528 -147 q 672 11 672 -147 l 672 44 l 308 44 q 82 263 82 44 l 82 725 l 183 725 m 676 1136 l 419 822 l 319 822 l 556 1136 l 676 1136 z "},"þ":{"ha":857,"x_min":88,"x_max":779,"o":"m 189 1024 l 189 100 l 533 100 q 678 249 678 100 l 678 474 q 533 622 678 622 l 244 622 l 244 724 l 553 724 q 779 492 779 724 l 779 232 q 553 0 779 0 l 189 0 l 189 -246 l 88 -246 l 88 1024 l 189 1024 z "},"ÿ":{"ha":861,"x_min":82,"x_max":774,"o":"m 82 0 m 183 725 l 183 278 q 326 139 183 139 l 672 139 l 672 725 l 774 725 l 774 0 q 547 -246 774 -246 l 215 -246 l 215 -147 l 528 -147 q 672 11 672 -147 l 672 44 l 308 44 q 82 263 82 44 l 82 725 l 183 725 m 611 1039 l 611 878 l 517 878 l 517 1039 l 611 1039 m 354 1039 l 354 878 l 260 878 l 260 1039 l 354 1039 z "},"Ā":{"ha":981,"x_min":17,"x_max":965,"o":"m 17 0 m 708 344 l 485 894 l 126 0 l 17 0 l 429 1014 l 543 1014 l 965 0 l 847 0 l 747 247 l 282 247 l 319 344 l 708 344 m 788 1218 l 788 1138 l 194 1138 l 194 1218 l 788 1218 z "},"ā":{"ha":824,"x_min":72,"x_max":747,"o":"m 72 0 m 521 725 q 747 493 747 725 l 747 232 q 521 0 747 0 l 265 0 q 72 192 72 0 l 72 249 q 256 410 72 410 l 590 410 l 590 328 l 282 328 q 169 232 169 328 l 169 199 q 283 88 169 88 l 504 88 q 646 235 646 88 l 646 483 q 508 626 646 626 l 94 626 l 94 725 l 521 725 m 708 972 l 708 892 l 115 892 l 115 972 l 708 972 z "},"Ă":{"ha":981,"x_min":17,"x_max":965,"o":"m 17 0 m 708 344 l 485 894 l 126 0 l 17 0 l 429 1014 l 543 1014 l 965 0 l 847 0 l 747 247 l 282 247 l 319 344 l 708 344 m 310 1382 q 488 1133 314 1133 q 667 1382 663 1133 l 743 1382 q 680 1147 742 1225 q 488 1068 618 1068 q 297 1147 358 1068 q 233 1382 235 1225 l 310 1382 z "},"ă":{"ha":824,"x_min":72,"x_max":747,"o":"m 72 0 m 521 725 q 747 493 747 725 l 747 232 q 521 0 747 0 l 265 0 q 72 192 72 0 l 72 249 q 256 410 72 410 l 590 410 l 590 328 l 282 328 q 169 232 169 328 l 169 199 q 283 88 169 88 l 504 88 q 646 235 646 88 l 646 483 q 508 626 646 626 l 94 626 l 94 725 l 521 725 m 232 1136 q 410 888 236 888 q 589 1136 585 888 l 665 1136 q 602 901 664 979 q 410 822 540 822 q 219 901 281 822 q 156 1136 157 979 l 232 1136 z "},"Ą":{"ha":981,"x_min":17,"x_max":965,"o":"m 708 344 l 485 894 l 126 0 l 17 0 l 429 1014 l 543 1014 l 965 0 l 831 -58 q 781 -121 781 -81 l 781 -150 q 846 -207 781 -207 l 965 -207 l 965 -285 l 793 -285 q 686 -185 686 -285 l 686 -143 q 703 -85 686 -107 q 763 -49 721 -64 l 901 0 l 847 0 l 747 247 l 282 247 l 319 344 l 708 344 z "},"ą":{"ha":824,"x_min":72,"x_max":747,"o":"m 490 0 l 265 0 q 72 192 72 0 l 72 249 q 256 410 72 410 l 590 410 l 590 328 l 282 328 q 169 232 169 328 l 169 199 q 283 88 169 88 l 504 88 q 646 235 646 88 l 646 483 q 508 626 646 626 l 94 626 l 94 725 l 521 725 q 747 493 747 725 l 747 232 q 557 1 747 18 l 419 -58 q 369 -121 369 -81 l 369 -150 q 435 -207 369 -207 l 554 -207 l 554 -285 l 382 -285 q 275 -185 275 -285 l 275 -143 q 292 -85 275 -107 q 351 -49 310 -64 l 490 0 z "},"Ć":{"ha":788,"x_min":78,"x_max":724,"o":"m 78 0 m 724 1014 l 724 910 l 324 910 q 183 767 183 910 l 183 247 q 324 104 183 104 l 724 104 l 724 0 l 304 0 q 78 231 78 0 l 78 783 q 304 1014 78 1014 l 724 1014 m 681 1382 l 424 1068 l 324 1068 l 560 1382 l 681 1382 z "},"ć":{"ha":693,"x_min":78,"x_max":633,"o":"m 78 0 m 628 725 l 628 624 l 324 624 q 179 476 179 624 l 179 249 q 324 100 179 100 l 628 100 l 628 0 l 304 0 q 78 232 78 0 l 78 493 q 304 725 78 725 l 628 725 m 633 1136 l 376 822 l 276 822 l 513 1136 l 633 1136 z "},"Ċ":{"ha":788,"x_min":78,"x_max":724,"o":"m 78 0 m 724 1014 l 724 910 l 324 910 q 183 767 183 910 l 183 247 q 324 104 183 104 l 724 104 l 724 0 l 304 0 q 78 231 78 0 l 78 783 q 304 1014 78 1014 l 724 1014 m 489 1285 l 489 1124 l 394 1124 l 394 1285 l 489 1285 z "},"ċ":{"ha":693,"x_min":78,"x_max":628,"o":"m 78 0 m 628 725 l 628 624 l 324 624 q 179 476 179 624 l 179 249 q 324 100 179 100 l 628 100 l 628 0 l 304 0 q 78 232 78 0 l 78 493 q 304 725 78 725 l 628 725 m 442 1039 l 442 878 l 347 878 l 347 1039 l 442 1039 z "},"Č":{"ha":788,"x_min":78,"x_max":724,"o":"m 78 0 m 724 1014 l 724 910 l 324 910 q 183 767 183 910 l 183 247 q 324 104 183 104 l 724 104 l 724 0 l 304 0 q 78 231 78 0 l 78 783 q 304 1014 78 1014 l 724 1014 m 271 1382 l 432 1146 l 597 1382 l 692 1382 l 471 1068 l 392 1068 l 175 1382 l 271 1382 z "},"č":{"ha":693,"x_min":78,"x_max":649,"o":"m 78 0 m 628 725 l 628 624 l 324 624 q 179 476 179 624 l 179 249 q 324 100 179 100 l 628 100 l 628 0 l 304 0 q 78 232 78 0 l 78 493 q 304 725 78 725 l 628 725 m 228 1136 l 389 900 l 554 1136 l 649 1136 l 428 822 l 349 822 l 132 1136 l 228 1136 z "},"Ď":{"ha":928,"x_min":88,"x_max":850,"o":"m 88 0 m 583 1014 q 850 742 850 1014 l 850 272 q 583 0 850 0 l 249 0 l 249 104 l 572 104 q 744 279 744 104 l 744 735 q 572 910 744 910 l 193 910 l 193 0 l 88 0 l 88 1014 l 583 1014 m 272 1382 l 433 1146 l 599 1382 l 693 1382 l 472 1068 l 393 1068 l 176 1382 l 272 1382 z "},"ď":{"ha":986,"x_min":78,"x_max":1018,"o":"m 78 0 m 769 1024 l 769 232 q 543 0 769 0 l 304 0 q 78 232 78 0 l 78 493 q 304 725 78 725 l 613 725 l 613 624 l 324 624 q 179 476 179 624 l 179 249 q 324 100 179 100 l 524 100 q 668 249 668 100 l 668 1024 l 769 1024 m 1018 1024 l 917 769 l 838 769 l 913 1024 l 1018 1024 z "},"Đ":{"ha":928,"x_min":0,"x_max":850,"o":"m 88 565 l 88 1014 l 583 1014 q 850 742 850 1014 l 850 272 q 583 0 850 0 l 249 0 l 249 104 l 572 104 q 744 279 744 104 l 744 735 q 572 910 744 910 l 193 910 l 193 565 l 514 565 l 514 465 l 193 465 l 193 0 l 88 0 l 88 465 l 0 465 l 0 565 l 88 565 z "},"đ":{"ha":851,"x_min":78,"x_max":851,"o":"m 668 903 l 668 1024 l 769 1024 l 769 903 l 851 903 l 851 822 l 769 822 l 769 232 q 543 0 769 0 l 304 0 q 78 232 78 0 l 78 493 q 304 725 78 725 l 613 725 l 613 624 l 324 624 q 179 476 179 624 l 179 249 q 324 100 179 100 l 524 100 q 668 249 668 100 l 668 822 l 258 822 l 258 903 l 668 903 z "},"Ē":{"ha":783,"x_min":88,"x_max":724,"o":"m 88 0 m 718 1014 l 718 910 l 193 910 l 193 565 l 710 565 l 710 465 l 193 465 l 193 104 l 724 104 l 724 0 l 88 0 l 88 1014 l 718 1014 m 699 1218 l 699 1138 l 106 1138 l 106 1218 l 699 1218 z "},"ē":{"ha":824,"x_min":78,"x_max":753,"o":"m 78 0 m 558 725 q 753 533 753 725 l 753 475 q 569 315 753 315 l 233 315 l 233 397 l 542 397 q 654 493 654 397 l 654 526 q 540 638 654 638 l 321 638 q 178 490 178 638 l 178 242 q 317 99 178 99 l 729 99 l 729 0 l 304 0 q 78 232 78 0 l 78 493 q 304 725 78 725 l 558 725 m 715 972 l 715 892 l 122 892 l 122 972 l 715 972 z "},"Ĕ":{"ha":783,"x_min":88,"x_max":724,"o":"m 88 0 m 718 1014 l 718 910 l 193 910 l 193 565 l 710 565 l 710 465 l 193 465 l 193 104 l 724 104 l 724 0 l 88 0 l 88 1014 l 718 1014 m 225 1382 q 403 1133 229 1133 q 582 1382 578 1133 l 658 1382 q 595 1147 657 1225 q 403 1068 533 1068 q 212 1147 274 1068 q 149 1382 150 1225 l 225 1382 z "},"ĕ":{"ha":824,"x_min":78,"x_max":753,"o":"m 78 0 m 558 725 q 753 533 753 725 l 753 475 q 569 315 753 315 l 233 315 l 233 397 l 542 397 q 654 493 654 397 l 654 526 q 540 638 654 638 l 321 638 q 178 490 178 638 l 178 242 q 317 99 178 99 l 729 99 l 729 0 l 304 0 q 78 232 78 0 l 78 493 q 304 725 78 725 l 558 725 m 239 1136 q 417 888 243 888 q 596 1136 592 888 l 672 1136 q 609 901 671 979 q 417 822 547 822 q 226 901 288 822 q 163 1136 164 979 l 239 1136 z "},"Ė":{"ha":783,"x_min":88,"x_max":724,"o":"m 88 0 m 718 1014 l 718 910 l 193 910 l 193 565 l 710 565 l 710 465 l 193 465 l 193 104 l 724 104 l 724 0 l 88 0 l 88 1014 l 718 1014 m 456 1285 l 456 1124 l 361 1124 l 361 1285 l 456 1285 z "},"ė":{"ha":824,"x_min":78,"x_max":753,"o":"m 78 0 m 558 725 q 753 533 753 725 l 753 475 q 569 315 753 315 l 233 315 l 233 397 l 542 397 q 654 493 654 397 l 654 526 q 540 638 654 638 l 321 638 q 178 490 178 638 l 178 242 q 317 99 178 99 l 729 99 l 729 0 l 304 0 q 78 232 78 0 l 78 493 q 304 725 78 725 l 558 725 m 472 1039 l 472 878 l 378 878 l 378 1039 l 472 1039 z "},"Ę":{"ha":783,"x_min":88,"x_max":724,"o":"m 660 0 l 88 0 l 88 1014 l 718 1014 l 718 910 l 193 910 l 193 565 l 710 565 l 710 465 l 193 465 l 193 104 l 724 104 l 724 0 l 589 -58 q 539 -121 539 -81 l 539 -150 q 604 -207 539 -207 l 724 -207 l 724 -285 l 551 -285 q 444 -185 444 -285 l 444 -143 q 462 -85 444 -107 q 521 -49 479 -64 l 660 0 z "},"ę":{"ha":824,"x_min":78,"x_max":753,"o":"m 665 0 l 304 0 q 78 232 78 0 l 78 493 q 304 725 78 725 l 558 725 q 753 533 753 725 l 753 475 q 569 315 753 315 l 233 315 l 233 397 l 542 397 q 654 493 654 397 l 654 526 q 540 638 654 638 l 321 638 q 178 490 178 638 l 178 242 q 317 99 178 99 l 729 99 l 729 0 l 594 -58 q 544 -121 544 -81 l 544 -150 q 610 -207 544 -207 l 729 -207 l 729 -285 l 557 -285 q 450 -185 450 -285 l 450 -143 q 467 -85 450 -107 q 526 -49 485 -64 l 665 0 z "},"Ě":{"ha":783,"x_min":88,"x_max":724,"o":"m 88 0 m 718 1014 l 718 910 l 193 910 l 193 565 l 710 565 l 710 465 l 193 465 l 193 104 l 724 104 l 724 0 l 88 0 l 88 1014 l 718 1014 m 242 1382 l 403 1146 l 568 1382 l 663 1382 l 442 1068 l 363 1068 l 146 1382 l 242 1382 z "},"ě":{"ha":824,"x_min":78,"x_max":753,"o":"m 78 0 m 558 725 q 753 533 753 725 l 753 475 q 569 315 753 315 l 233 315 l 233 397 l 542 397 q 654 493 654 397 l 654 526 q 540 638 654 638 l 321 638 q 178 490 178 638 l 178 242 q 317 99 178 99 l 729 99 l 729 0 l 304 0 q 78 232 78 0 l 78 493 q 304 725 78 725 l 558 725 m 249 1136 l 410 900 l 575 1136 l 669 1136 l 449 822 l 369 822 l 153 1136 l 249 1136 z "},"Ğ":{"ha":899,"x_min":78,"x_max":821,"o":"m 78 0 m 797 1014 l 797 910 l 324 910 q 183 767 183 910 l 183 247 q 324 104 183 104 l 596 104 q 722 231 722 104 l 722 483 l 435 483 l 435 576 l 821 576 l 821 206 q 617 0 821 0 l 304 0 q 78 231 78 0 l 78 783 q 304 1014 78 1014 l 797 1014 m 268 1382 q 446 1133 272 1133 q 625 1382 621 1133 l 701 1382 q 638 1147 700 1225 q 446 1068 576 1068 q 255 1147 317 1068 q 192 1382 193 1225 l 268 1382 z "},"ğ":{"ha":849,"x_min":78,"x_max":769,"o":"m 78 0 m 543 725 q 769 493 769 725 l 769 0 q 543 -246 769 -246 l 211 -246 l 211 -147 l 524 -147 q 668 11 668 -147 l 668 476 q 524 624 668 624 l 324 624 q 179 476 179 624 l 179 278 q 324 139 179 139 l 613 139 l 613 44 l 304 44 q 78 263 78 44 l 78 493 q 304 725 78 725 l 543 725 m 244 1136 q 422 888 249 888 q 601 1136 597 888 l 678 1136 q 615 901 676 979 q 422 822 553 822 q 231 901 293 822 q 168 1136 169 979 l 244 1136 z "},"Ġ":{"ha":899,"x_min":78,"x_max":821,"o":"m 78 0 m 797 1014 l 797 910 l 324 910 q 183 767 183 910 l 183 247 q 324 104 183 104 l 596 104 q 722 231 722 104 l 722 483 l 435 483 l 435 576 l 821 576 l 821 206 q 617 0 821 0 l 304 0 q 78 231 78 0 l 78 783 q 304 1014 78 1014 l 797 1014 m 500 1285 l 500 1124 l 406 1124 l 406 1285 l 500 1285 z "},"ġ":{"ha":849,"x_min":78,"x_max":769,"o":"m 78 0 m 543 725 q 769 493 769 725 l 769 0 q 543 -246 769 -246 l 211 -246 l 211 -147 l 524 -147 q 668 11 668 -147 l 668 476 q 524 624 668 624 l 324 624 q 179 476 179 624 l 179 278 q 324 139 179 139 l 613 139 l 613 44 l 304 44 q 78 263 78 44 l 78 493 q 304 725 78 725 l 543 725 m 475 1039 l 475 878 l 381 878 l 381 1039 l 475 1039 z "},"Ģ":{"ha":899,"x_min":78,"x_max":821,"o":"m 78 0 m 797 1014 l 797 910 l 324 910 q 183 767 183 910 l 183 247 q 324 104 183 104 l 596 104 q 722 231 722 104 l 722 483 l 435 483 l 435 576 l 821 576 l 821 206 q 617 0 821 0 l 304 0 q 78 231 78 0 l 78 783 q 304 1014 78 1014 l 797 1014 m 529 -31 l 428 -285 l 349 -285 l 424 -31 l 529 -31 z "},"ģ":{"ha":849,"x_min":78,"x_max":769,"o":"m 78 0 m 543 725 q 769 493 769 725 l 769 0 q 543 -246 769 -246 l 211 -246 l 211 -147 l 524 -147 q 668 11 668 -147 l 668 476 q 524 624 668 624 l 324 624 q 179 476 179 624 l 179 278 q 324 139 179 139 l 613 139 l 613 44 l 304 44 q 78 263 78 44 l 78 493 q 304 725 78 725 l 543 725 m 560 1036 l 458 782 l 379 782 l 454 1036 l 560 1036 z "},"Ħ":{"ha":900,"x_min":0,"x_max":900,"o":"m 88 871 l 88 1014 l 193 1014 l 193 871 l 707 871 l 707 1014 l 813 1014 l 813 871 l 900 871 l 900 790 l 813 790 l 813 0 l 707 0 l 707 472 l 193 472 l 193 0 l 88 0 l 88 790 l 0 790 l 0 871 l 88 871 m 707 571 l 707 790 l 193 790 l 193 571 l 707 571 z "},"ħ":{"ha":861,"x_min":0,"x_max":779,"o":"m 88 903 l 88 1024 l 189 1024 l 189 903 l 593 903 l 593 822 l 189 822 l 189 725 l 553 725 q 779 493 779 725 l 779 0 l 678 0 l 678 476 q 533 624 678 624 l 189 624 l 189 0 l 88 0 l 88 822 l 0 822 l 0 903 l 88 903 z "},"Ī":{"ha":531,"x_min":-31,"x_max":563,"o":"m 0 0 m 318 1014 l 318 0 l 213 0 l 213 1014 l 318 1014 m 563 1218 l 563 1138 l -31 1138 l -31 1218 l 563 1218 z "},"ī":{"ha":568,"x_min":-12,"x_max":581,"o":"m 0 0 m 581 972 l 581 892 l -12 892 l -12 972 l 581 972 m 336 725 l 336 0 l 235 0 l 235 725 l 336 725 z "},"Ĭ":{"ha":406,"x_min":-51,"x_max":458,"o":"m 0 0 m 257 1014 l 257 0 l 151 0 l 151 1014 l 257 1014 m 25 1382 q 203 1133 29 1133 q 382 1382 378 1133 l 458 1382 q 395 1147 457 1225 q 203 1068 333 1068 q 12 1147 74 1068 q -51 1382 -50 1225 l 25 1382 z "},"ĭ":{"ha":472,"x_min":-19,"x_max":490,"o":"m 0 0 m 57 1136 q 235 888 61 888 q 414 1136 410 888 l 490 1136 q 427 901 489 979 q 235 822 365 822 q 44 901 106 822 q -19 1136 -18 979 l 57 1136 m 288 725 l 288 0 l 186 0 l 186 725 l 288 725 z "},"Į":{"ha":350,"x_min":-17,"x_max":263,"o":"m 199 0 l 157 0 l 157 1014 l 263 1014 l 263 0 l 128 -58 q 78 -121 78 -81 l 78 -150 q 143 -207 78 -207 l 263 -207 l 263 -285 l 90 -285 q -17 -185 -17 -285 l -17 -143 q 1 -85 -17 -107 q 60 -49 18 -64 l 199 0 z "},"į":{"ha":308,"x_min":-57,"x_max":222,"o":"m 158 0 l 121 0 l 121 718 l 222 718 l 222 0 l 88 -58 q 38 -121 38 -81 l 38 -150 q 103 -207 38 -207 l 222 -207 l 222 -285 l 50 -285 q -57 -185 -57 -285 l -57 -143 q -40 -85 -57 -107 q 19 -49 -22 -64 l 158 0 m 222 1024 l 222 863 l 121 863 l 121 1024 l 222 1024 z "},"İ":{"ha":279,"x_min":88,"x_max":193,"o":"m 88 0 m 193 1014 l 193 0 l 88 0 l 88 1014 l 193 1014 m 188 1285 l 188 1124 l 93 1124 l 93 1285 l 188 1285 z "},"ı":{"ha":275,"x_min":88,"x_max":189,"o":"m 189 725 l 189 0 l 88 0 l 88 725 l 189 725 z "},"Ĳ":{"ha":929,"x_min":131,"x_max":847,"o":"m 131 0 m 236 1014 l 236 0 l 131 0 l 131 1014 l 236 1014 m 847 1014 l 847 231 q 621 0 847 0 l 335 0 l 335 104 l 601 104 q 742 247 742 104 l 742 1014 l 847 1014 z "},"ĳ":{"ha":538,"x_min":88,"x_max":450,"o":"m 88 0 m 189 718 l 189 0 l 88 0 l 88 718 l 189 718 m 189 1024 l 189 863 l 88 863 l 88 1024 l 189 1024 m 450 718 l 450 -36 q 258 -246 450 -246 l 193 -246 l 193 -147 l 239 -147 q 349 -25 349 -147 l 349 718 l 450 718 m 450 1024 l 450 863 l 349 863 l 349 1024 l 450 1024 z "},"Ķ":{"ha":889,"x_min":88,"x_max":828,"o":"m 88 0 m 193 1014 l 193 526 l 197 526 l 650 1014 l 775 1014 l 322 539 l 635 539 q 828 342 828 539 l 828 0 l 722 0 l 722 325 q 600 450 722 450 l 193 450 l 193 0 l 88 0 l 88 1014 l 193 1014 m 515 -31 l 414 -285 l 335 -285 l 410 -31 l 515 -31 z "},"ķ":{"ha":813,"x_min":88,"x_max":751,"o":"m 88 0 m 189 1024 l 189 393 l 194 393 l 542 725 l 660 725 l 322 407 l 565 407 q 751 221 751 407 l 751 0 l 650 0 l 650 203 q 522 332 650 332 l 189 332 l 189 0 l 88 0 l 88 1024 l 189 1024 m 475 -31 l 374 -285 l 294 -285 l 369 -31 l 475 -31 z "},"Ĺ":{"ha":747,"x_min":88,"x_max":711,"o":"m 88 0 m 193 1014 l 193 104 l 711 104 l 711 0 l 88 0 l 88 1014 l 193 1014 m 478 1382 l 221 1068 l 121 1068 l 357 1382 l 478 1382 z "},"ĺ":{"ha":369,"x_min":53,"x_max":410,"o":"m 53 0 m 181 1024 l 181 0 l 79 0 l 79 1024 l 181 1024 m 410 1382 l 153 1068 l 53 1068 l 289 1382 l 410 1382 z "},"Ļ":{"ha":747,"x_min":88,"x_max":711,"o":"m 88 0 m 193 1014 l 193 104 l 711 104 l 711 0 l 88 0 l 88 1014 l 193 1014 m 453 -31 l 351 -285 l 272 -285 l 347 -31 l 453 -31 z "},"ļ":{"ha":275,"x_min":8,"x_max":189,"o":"m 8 0 m 189 1024 l 189 0 l 88 0 l 88 1024 l 189 1024 m 189 -31 l 88 -285 l 8 -285 l 83 -31 l 189 -31 z "},"Ľ":{"ha":747,"x_min":88,"x_max":711,"o":"m 88 0 m 193 1014 l 193 104 l 711 104 l 711 0 l 88 0 l 88 1014 l 193 1014 m 599 1014 l 497 760 l 418 760 l 493 1014 l 599 1014 z "},"ľ":{"ha":404,"x_min":88,"x_max":436,"o":"m 88 0 m 189 1024 l 189 0 l 88 0 l 88 1024 l 189 1024 m 436 1024 l 335 769 l 256 769 l 331 1024 l 436 1024 z "},"Ŀ":{"ha":747,"x_min":88,"x_max":711,"o":"m 88 0 m 193 1014 l 193 104 l 711 104 l 711 0 l 88 0 l 88 1014 l 193 1014 m 514 603 l 514 442 l 419 442 l 419 603 l 514 603 z "},"ŀ":{"ha":358,"x_min":88,"x_max":363,"o":"m 88 0 m 189 1024 l 189 0 l 88 0 l 88 1024 l 189 1024 m 363 603 l 363 442 l 268 442 l 268 603 l 363 603 z "},"Ł":{"ha":747,"x_min":0,"x_max":711,"o":"m 88 528 l 88 1014 l 193 1014 l 193 599 l 574 854 l 574 765 l 193 511 l 193 104 l 711 104 l 711 0 l 88 0 l 88 440 l 0 382 l 0 469 l 88 528 z "},"ł":{"ha":438,"x_min":0,"x_max":438,"o":"m 167 606 l 167 1024 l 268 1024 l 268 700 l 438 858 l 438 764 l 268 607 l 268 0 l 167 0 l 167 513 l 0 358 l 0 451 l 167 606 z "},"Ń":{"ha":949,"x_min":88,"x_max":863,"o":"m 88 0 m 203 1014 l 760 188 l 760 1014 l 863 1014 l 863 0 l 769 0 l 190 850 l 190 0 l 88 0 l 88 1014 l 203 1014 m 719 1382 l 463 1068 l 363 1068 l 599 1382 l 719 1382 z "},"ń":{"ha":861,"x_min":88,"x_max":779,"o":"m 88 0 m 553 725 q 779 493 779 725 l 779 0 l 678 0 l 678 476 q 533 624 678 624 l 189 624 l 189 0 l 88 0 l 88 725 l 553 725 m 676 1136 l 419 822 l 319 822 l 556 1136 l 676 1136 z "},"Ņ":{"ha":949,"x_min":88,"x_max":863,"o":"m 88 0 m 203 1014 l 760 188 l 760 1014 l 863 1014 l 863 0 l 769 0 l 190 850 l 190 0 l 88 0 l 88 1014 l 203 1014 m 544 -31 l 443 -285 l 364 -285 l 439 -31 l 544 -31 z "},"ņ":{"ha":861,"x_min":88,"x_max":779,"o":"m 88 0 m 553 725 q 779 493 779 725 l 779 0 l 678 0 l 678 476 q 533 624 678 624 l 189 624 l 189 0 l 88 0 l 88 725 l 553 725 m 493 -31 l 392 -285 l 313 -285 l 388 -31 l 493 -31 z "},"Ň":{"ha":949,"x_min":88,"x_max":863,"o":"m 88 0 m 203 1014 l 760 188 l 760 1014 l 863 1014 l 863 0 l 769 0 l 190 850 l 190 0 l 88 0 l 88 1014 l 203 1014 m 311 1382 l 472 1146 l 638 1382 l 732 1382 l 511 1068 l 432 1068 l 215 1382 l 311 1382 z "},"ň":{"ha":861,"x_min":88,"x_max":779,"o":"m 88 0 m 553 725 q 779 493 779 725 l 779 0 l 678 0 l 678 476 q 533 624 678 624 l 189 624 l 189 0 l 88 0 l 88 725 l 553 725 m 267 1136 l 428 900 l 593 1136 l 688 1136 l 467 822 l 388 822 l 171 1136 l 267 1136 z "},"Ŋ":{"ha":949,"x_min":88,"x_max":863,"o":"m 863 1014 l 863 -36 q 671 -246 863 -246 l 606 -246 l 606 -147 l 650 -147 q 760 -25 760 -147 l 760 14 l 190 850 l 190 0 l 88 0 l 88 1014 l 203 1014 l 760 188 l 760 1014 l 863 1014 z "},"ŋ":{"ha":861,"x_min":88,"x_max":779,"o":"m 553 725 q 779 493 779 725 l 779 -36 q 588 -246 779 -246 l 522 -246 l 522 -147 l 568 -147 q 678 -25 678 -147 l 678 476 q 533 624 678 624 l 189 624 l 189 0 l 88 0 l 88 725 l 553 725 z "},"Ō":{"ha":929,"x_min":78,"x_max":853,"o":"m 78 0 m 626 1014 q 853 783 853 1014 l 853 231 q 626 0 853 0 l 304 0 q 78 231 78 0 l 78 783 q 304 1014 78 1014 l 626 1014 m 183 247 q 324 104 183 104 l 606 104 q 746 247 746 104 l 746 767 q 606 910 746 910 l 324 910 q 183 767 183 910 l 183 247 m 761 1218 l 761 1138 l 168 1138 l 168 1218 l 761 1218 z "},"ō":{"ha":854,"x_min":78,"x_max":776,"o":"m 78 0 m 550 725 q 776 493 776 725 l 776 232 q 550 0 776 0 l 304 0 q 78 232 78 0 l 78 493 q 304 725 78 725 l 550 725 m 179 249 q 324 100 179 100 l 531 100 q 675 249 675 100 l 675 476 q 531 624 675 624 l 324 624 q 179 476 179 624 l 179 249 m 724 972 l 724 892 l 131 892 l 131 972 l 724 972 z "},"Ŏ":{"ha":929,"x_min":78,"x_max":853,"o":"m 78 0 m 626 1014 q 853 783 853 1014 l 853 231 q 626 0 853 0 l 304 0 q 78 231 78 0 l 78 783 q 304 1014 78 1014 l 626 1014 m 183 247 q 324 104 183 104 l 606 104 q 746 247 746 104 l 746 767 q 606 910 746 910 l 324 910 q 183 767 183 910 l 183 247 m 285 1382 q 463 1133 289 1133 q 642 1382 638 1133 l 718 1382 q 655 1147 717 1225 q 463 1068 593 1068 q 272 1147 333 1068 q 208 1382 210 1225 l 285 1382 z "},"ŏ":{"ha":854,"x_min":78,"x_max":776,"o":"m 78 0 m 550 725 q 776 493 776 725 l 776 232 q 550 0 776 0 l 304 0 q 78 232 78 0 l 78 493 q 304 725 78 725 l 550 725 m 179 249 q 324 100 179 100 l 531 100 q 675 249 675 100 l 675 476 q 531 624 675 624 l 324 624 q 179 476 179 624 l 179 249 m 247 1136 q 425 888 251 888 q 604 1136 600 888 l 681 1136 q 617 901 679 979 q 425 822 556 822 q 234 901 296 822 q 171 1136 172 979 l 247 1136 z "},"Ő":{"ha":929,"x_min":78,"x_max":853,"o":"m 78 0 m 626 1014 q 853 783 853 1014 l 853 231 q 626 0 853 0 l 304 0 q 78 231 78 0 l 78 783 q 304 1014 78 1014 l 626 1014 m 183 247 q 324 104 183 104 l 606 104 q 746 247 746 104 l 746 767 q 606 910 746 910 l 324 910 q 183 767 183 910 l 183 247 m 806 1382 l 549 1068 l 453 1068 l 690 1382 l 806 1382 m 556 1382 l 299 1068 l 204 1068 l 440 1382 l 556 1382 z "},"ő":{"ha":854,"x_min":78,"x_max":776,"o":"m 78 0 m 550 725 q 776 493 776 725 l 776 232 q 550 0 776 0 l 304 0 q 78 232 78 0 l 78 493 q 304 725 78 725 l 550 725 m 179 249 q 324 100 179 100 l 531 100 q 675 249 675 100 l 675 476 q 531 624 675 624 l 324 624 q 179 476 179 624 l 179 249 m 768 1136 l 511 822 l 415 822 l 653 1136 l 768 1136 m 518 1136 l 261 822 l 167 822 l 403 1136 l 518 1136 z "},"Œ":{"ha":1443,"x_min":78,"x_max":1383,"o":"m 1378 1014 l 1378 910 l 853 910 l 853 565 l 1369 565 l 1369 465 l 853 465 l 853 104 l 1383 104 l 1383 0 l 304 0 q 78 231 78 0 l 78 783 q 304 1014 78 1014 l 1378 1014 m 183 247 q 324 104 183 104 l 747 104 l 747 910 l 324 910 q 183 767 183 910 l 183 247 z "},"œ":{"ha":1422,"x_min":78,"x_max":1351,"o":"m 550 725 q 726 660 669 725 q 903 725 783 725 l 1157 725 q 1351 533 1351 725 l 1351 475 q 1168 315 1351 315 l 832 315 l 832 397 l 1140 397 q 1253 493 1253 397 l 1253 526 q 1139 638 1253 638 l 919 638 q 776 490 776 638 l 776 228 q 813 131 776 163 q 915 99 849 99 l 1328 99 l 1328 0 l 903 0 q 726 65 782 0 q 550 0 671 0 l 304 0 q 78 232 78 0 l 78 493 q 304 725 78 725 l 550 725 m 179 249 q 324 100 179 100 l 531 100 q 675 249 675 100 l 675 476 q 531 624 675 624 l 324 624 q 179 476 179 624 l 179 249 z "},"Ŕ":{"ha":897,"x_min":88,"x_max":892,"o":"m 88 0 m 615 1014 q 810 818 810 1014 l 810 667 q 762 526 810 575 q 618 478 714 478 l 388 478 l 892 0 l 751 0 l 249 481 l 249 563 l 600 563 q 707 668 707 563 l 707 801 q 600 910 707 910 l 193 910 l 193 0 l 88 0 l 88 1014 l 615 1014 m 675 1382 l 418 1068 l 318 1068 l 554 1382 l 675 1382 z "},"ŕ":{"ha":549,"x_min":88,"x_max":547,"o":"m 88 0 m 510 724 l 510 624 l 332 624 q 189 475 189 624 l 189 0 l 88 0 l 88 492 q 314 724 88 724 l 510 724 m 547 1136 l 290 822 l 190 822 l 426 1136 l 547 1136 z "},"Ŗ":{"ha":897,"x_min":88,"x_max":892,"o":"m 88 0 m 615 1014 q 810 818 810 1014 l 810 667 q 762 526 810 575 q 618 478 714 478 l 388 478 l 892 0 l 751 0 l 249 481 l 249 563 l 600 563 q 707 668 707 563 l 707 801 q 600 910 707 910 l 193 910 l 193 0 l 88 0 l 88 1014 l 615 1014 m 529 -31 l 428 -285 l 349 -285 l 424 -31 l 529 -31 z "},"ŗ":{"ha":549,"x_min":8,"x_max":510,"o":"m 8 0 m 510 724 l 510 624 l 332 624 q 189 475 189 624 l 189 0 l 88 0 l 88 492 q 314 724 88 724 l 510 724 m 189 -31 l 88 -285 l 8 -285 l 83 -31 l 189 -31 z "},"Ř":{"ha":897,"x_min":88,"x_max":892,"o":"m 88 0 m 615 1014 q 810 818 810 1014 l 810 667 q 762 526 810 575 q 618 478 714 478 l 388 478 l 892 0 l 751 0 l 249 481 l 249 563 l 600 563 q 707 668 707 563 l 707 801 q 600 910 707 910 l 193 910 l 193 0 l 88 0 l 88 1014 l 615 1014 m 267 1382 l 428 1146 l 593 1382 l 688 1382 l 467 1068 l 388 1068 l 171 1382 l 267 1382 z "},"ř":{"ha":549,"x_min":43,"x_max":560,"o":"m 43 0 m 510 724 l 510 624 l 332 624 q 189 475 189 624 l 189 0 l 88 0 l 88 492 q 314 724 88 724 l 510 724 m 139 1136 l 300 900 l 465 1136 l 560 1136 l 339 822 l 260 822 l 43 1136 l 139 1136 z "},"Ś":{"ha":835,"x_min":60,"x_max":772,"o":"m 60 0 m 739 1014 l 739 910 l 289 910 q 164 781 164 910 l 164 683 q 276 568 164 568 l 575 568 q 772 367 772 568 l 772 222 q 554 0 772 0 l 67 0 l 67 104 l 543 104 q 669 233 669 104 l 669 358 q 557 474 669 474 l 257 474 q 60 675 60 474 l 60 792 q 278 1014 60 1014 l 739 1014 m 676 1382 l 419 1068 l 319 1068 l 556 1382 l 676 1382 z "},"ś":{"ha":751,"x_min":61,"x_max":696,"o":"m 61 0 m 664 725 l 664 638 l 253 638 q 160 551 160 638 l 160 494 q 246 415 160 415 l 538 415 q 696 267 696 415 l 696 161 q 525 0 696 0 l 68 0 l 68 88 l 499 88 q 597 174 597 88 l 597 256 q 513 335 597 335 l 221 335 q 61 483 61 335 l 61 565 q 228 725 61 725 l 664 725 m 635 1136 l 378 822 l 278 822 l 514 1136 l 635 1136 z "},"Ş":{"ha":835,"x_min":60,"x_max":772,"o":"m 60 0 m 739 1014 l 739 910 l 289 910 q 164 781 164 910 l 164 683 q 276 568 164 568 l 575 568 q 772 367 772 568 l 772 222 q 554 0 772 0 l 67 0 l 67 104 l 543 104 q 669 233 669 104 l 669 358 q 557 474 669 474 l 257 474 q 60 675 60 474 l 60 792 q 278 1014 60 1014 l 739 1014 m 483 -31 l 382 -285 l 303 -285 l 378 -31 l 483 -31 z "},"ş":{"ha":751,"x_min":61,"x_max":696,"o":"m 61 0 m 664 725 l 664 638 l 253 638 q 160 551 160 638 l 160 494 q 246 415 160 415 l 538 415 q 696 267 696 415 l 696 161 q 525 0 696 0 l 68 0 l 68 88 l 499 88 q 597 174 597 88 l 597 256 q 513 335 597 335 l 221 335 q 61 483 61 335 l 61 565 q 228 725 61 725 l 664 725 m 442 -31 l 340 -285 l 261 -285 l 336 -31 l 442 -31 z "},"Š":{"ha":835,"x_min":60,"x_max":772,"o":"m 60 0 m 739 1014 l 739 910 l 289 910 q 164 781 164 910 l 164 683 q 276 568 164 568 l 575 568 q 772 367 772 568 l 772 222 q 554 0 772 0 l 67 0 l 67 104 l 543 104 q 669 233 669 104 l 669 358 q 557 474 669 474 l 257 474 q 60 675 60 474 l 60 792 q 278 1014 60 1014 l 739 1014 m 267 1382 l 428 1146 l 593 1382 l 688 1382 l 467 1068 l 388 1068 l 171 1382 l 267 1382 z "},"š":{"ha":751,"x_min":61,"x_max":696,"o":"m 61 0 m 664 725 l 664 638 l 253 638 q 160 551 160 638 l 160 494 q 246 415 160 415 l 538 415 q 696 267 696 415 l 696 161 q 525 0 696 0 l 68 0 l 68 88 l 499 88 q 597 174 597 88 l 597 256 q 513 335 597 335 l 221 335 q 61 483 61 335 l 61 565 q 228 725 61 725 l 664 725 m 226 1136 l 388 900 l 553 1136 l 647 1136 l 426 822 l 347 822 l 131 1136 l 226 1136 z "},"Ţ":{"ha":783,"x_min":35,"x_max":747,"o":"m 35 0 m 747 1014 l 747 910 l 446 910 l 446 0 l 340 0 l 340 910 l 35 910 l 35 1014 l 747 1014 m 444 -31 l 343 -285 l 264 -285 l 339 -31 l 444 -31 z "},"ţ":{"ha":474,"x_min":39,"x_max":433,"o":"m 39 0 m 276 961 l 276 725 l 433 725 l 433 635 l 276 635 l 276 0 l 175 0 l 175 635 l 39 635 l 39 725 l 175 725 l 175 961 l 276 961 m 278 -31 l 176 -285 l 97 -285 l 172 -31 l 278 -31 z "},"Ť":{"ha":783,"x_min":35,"x_max":747,"o":"m 35 0 m 747 1014 l 747 910 l 446 910 l 446 0 l 340 0 l 340 910 l 35 910 l 35 1014 l 747 1014 m 228 1382 l 389 1146 l 554 1382 l 649 1382 l 428 1068 l 349 1068 l 132 1382 l 228 1382 z "},"ť":{"ha":594,"x_min":39,"x_max":628,"o":"m 39 0 m 276 961 l 276 725 l 433 725 l 433 635 l 276 635 l 276 0 l 175 0 l 175 635 l 39 635 l 39 725 l 175 725 l 175 961 l 276 961 m 628 1024 l 526 769 l 447 769 l 522 1024 l 628 1024 z "},"Ŧ":{"ha":783,"x_min":35,"x_max":747,"o":"m 340 514 l 340 910 l 35 910 l 35 1014 l 747 1014 l 747 910 l 446 910 l 446 514 l 696 514 l 696 433 l 446 433 l 446 0 l 340 0 l 340 433 l 103 433 l 103 514 l 340 514 z "},"ŧ":{"ha":472,"x_min":7,"x_max":465,"o":"m 175 371 l 175 635 l 39 635 l 39 725 l 175 725 l 175 961 l 276 961 l 276 725 l 433 725 l 433 635 l 276 635 l 276 371 l 465 371 l 465 296 l 276 296 l 276 0 l 175 0 l 175 296 l 7 296 l 7 371 l 175 371 z "},"Ũ":{"ha":928,"x_min":82,"x_max":846,"o":"m 82 0 m 188 1014 l 188 247 q 328 104 188 104 l 599 104 q 740 247 740 104 l 740 1014 l 846 1014 l 846 231 q 619 0 846 0 l 308 0 q 82 231 82 0 l 82 1014 l 188 1014 m 760 1218 l 760 1138 l 167 1138 l 167 1218 l 760 1218 z "},"ũ":{"ha":851,"x_min":82,"x_max":769,"o":"m 82 0 m 183 724 l 183 249 q 326 100 183 100 l 525 100 q 669 249 669 100 l 669 724 l 769 724 l 769 232 q 543 0 769 0 l 308 0 q 82 232 82 0 l 82 724 l 183 724 m 722 972 l 722 892 l 129 892 l 129 972 l 722 972 z "},"Ū":{"ha":928,"x_min":82,"x_max":846,"o":"m 82 0 m 188 1014 l 188 247 q 328 104 188 104 l 599 104 q 740 247 740 104 l 740 1014 l 846 1014 l 846 231 q 619 0 846 0 l 308 0 q 82 231 82 0 l 82 1014 l 188 1014 m 760 1218 l 760 1138 l 167 1138 l 167 1218 l 760 1218 z "},"ū":{"ha":851,"x_min":82,"x_max":769,"o":"m 82 0 m 183 724 l 183 249 q 326 100 183 100 l 525 100 q 669 249 669 100 l 669 724 l 769 724 l 769 232 q 543 0 769 0 l 308 0 q 82 232 82 0 l 82 724 l 183 724 m 722 972 l 722 892 l 129 892 l 129 972 l 722 972 z "},"Ŭ":{"ha":928,"x_min":82,"x_max":846,"o":"m 82 0 m 188 1014 l 188 247 q 328 104 188 104 l 599 104 q 740 247 740 104 l 740 1014 l 846 1014 l 846 231 q 619 0 846 0 l 308 0 q 82 231 82 0 l 82 1014 l 188 1014 m 283 1382 q 461 1133 288 1133 q 640 1382 636 1133 l 717 1382 q 653 1147 715 1225 q 461 1068 592 1068 q 270 1147 332 1068 q 207 1382 208 1225 l 283 1382 z "},"ŭ":{"ha":851,"x_min":82,"x_max":769,"o":"m 82 0 m 183 724 l 183 249 q 326 100 183 100 l 525 100 q 669 249 669 100 l 669 724 l 769 724 l 769 232 q 543 0 769 0 l 308 0 q 82 232 82 0 l 82 724 l 183 724 m 244 1136 q 422 888 249 888 q 601 1136 597 888 l 678 1136 q 615 901 676 979 q 422 822 553 822 q 231 901 293 822 q 168 1136 169 979 l 244 1136 z "},"Ů":{"ha":928,"x_min":82,"x_max":846,"o":"m 82 0 m 188 1014 l 188 247 q 328 104 188 104 l 599 104 q 740 247 740 104 l 740 1014 l 846 1014 l 846 231 q 619 0 846 0 l 308 0 q 82 231 82 0 l 82 1014 l 188 1014 m 519 1382 q 624 1288 624 1382 l 624 1164 q 519 1068 624 1068 l 407 1068 q 303 1164 303 1068 l 303 1288 q 407 1382 303 1382 l 519 1382 m 358 1172 q 417 1119 358 1119 l 510 1119 q 568 1172 568 1119 l 568 1279 q 510 1331 568 1331 l 417 1331 q 358 1279 358 1331 l 358 1172 z "},"ů":{"ha":851,"x_min":82,"x_max":769,"o":"m 82 0 m 183 724 l 183 249 q 326 100 183 100 l 525 100 q 669 249 669 100 l 669 724 l 769 724 l 769 232 q 543 0 769 0 l 308 0 q 82 232 82 0 l 82 724 l 183 724 m 482 1136 q 586 1042 586 1136 l 586 918 q 482 822 586 822 l 369 822 q 265 918 265 822 l 265 1042 q 369 1136 265 1136 l 482 1136 m 321 926 q 379 874 321 874 l 472 874 q 531 926 531 874 l 531 1033 q 472 1085 531 1085 l 379 1085 q 321 1033 321 1085 l 321 926 z "},"Ű":{"ha":928,"x_min":82,"x_max":846,"o":"m 82 0 m 188 1014 l 188 247 q 328 104 188 104 l 599 104 q 740 247 740 104 l 740 1014 l 846 1014 l 846 231 q 619 0 846 0 l 308 0 q 82 231 82 0 l 82 1014 l 188 1014 m 804 1382 l 547 1068 l 451 1068 l 689 1382 l 804 1382 m 554 1382 l 297 1068 l 203 1068 l 439 1382 l 554 1382 z "},"ű":{"ha":851,"x_min":82,"x_max":769,"o":"m 82 0 m 183 724 l 183 249 q 326 100 183 100 l 525 100 q 669 249 669 100 l 669 724 l 769 724 l 769 232 q 543 0 769 0 l 308 0 q 82 232 82 0 l 82 724 l 183 724 m 767 1136 l 510 822 l 414 822 l 651 1136 l 767 1136 m 517 1136 l 260 822 l 165 822 l 401 1136 l 517 1136 z "},"Ų":{"ha":928,"x_min":82,"x_max":846,"o":"m 508 0 l 308 0 q 82 231 82 0 l 82 1014 l 188 1014 l 188 247 q 328 104 188 104 l 599 104 q 740 247 740 104 l 740 1014 l 846 1014 l 846 231 q 619 0 846 0 l 572 0 l 438 -58 q 388 -121 388 -81 l 388 -150 q 453 -207 388 -207 l 572 -207 l 572 -285 l 400 -285 q 293 -185 293 -285 l 293 -143 q 310 -85 293 -107 q 369 -49 328 -64 l 508 0 z "},"ų":{"ha":851,"x_min":82,"x_max":769,"o":"m 461 0 l 308 0 q 82 232 82 0 l 82 724 l 183 724 l 183 249 q 326 100 183 100 l 525 100 q 669 249 669 100 l 669 724 l 769 724 l 769 232 q 543 0 769 0 l 525 0 l 390 -58 q 340 -121 340 -81 l 340 -150 q 406 -207 340 -207 l 525 -207 l 525 -285 l 353 -285 q 246 -185 246 -285 l 246 -143 q 263 -85 246 -107 q 322 -49 281 -64 l 461 0 z "},"Ŵ":{"ha":1290,"x_min":19,"x_max":1272,"o":"m 19 0 m 129 1014 l 349 178 l 596 1014 l 701 1014 l 940 175 l 1163 1014 l 1272 1014 l 996 0 l 889 0 l 647 865 l 397 0 l 292 0 l 19 1014 l 129 1014 m 688 1382 l 903 1068 l 808 1068 l 647 1304 l 482 1068 l 386 1068 l 608 1382 l 688 1382 z "},"ŵ":{"ha":1179,"x_min":18,"x_max":1161,"o":"m 18 0 m 122 725 l 318 131 l 542 725 l 642 725 l 858 129 l 1058 725 l 1161 725 l 911 0 l 811 0 l 590 613 l 364 0 l 265 0 l 18 725 l 122 725 m 632 1136 l 847 822 l 753 822 l 592 1058 l 426 822 l 331 822 l 553 1136 l 632 1136 z "},"Ŷ":{"ha":906,"x_min":14,"x_max":892,"o":"m 14 0 m 136 1014 l 456 521 l 774 1014 l 892 1014 l 508 431 l 508 0 l 401 0 l 401 431 l 14 1014 l 136 1014 m 494 1382 l 710 1068 l 615 1068 l 454 1304 l 289 1068 l 193 1068 l 415 1382 l 494 1382 z "},"ŷ":{"ha":861,"x_min":82,"x_max":774,"o":"m 82 0 m 183 725 l 183 278 q 326 139 183 139 l 672 139 l 672 725 l 774 725 l 774 0 q 547 -246 774 -246 l 215 -246 l 215 -147 l 528 -147 q 672 11 672 -147 l 672 44 l 308 44 q 82 263 82 44 l 82 725 l 183 725 m 472 1136 l 688 822 l 593 822 l 432 1058 l 267 822 l 171 822 l 393 1136 l 472 1136 z "},"Ÿ":{"ha":906,"x_min":14,"x_max":892,"o":"m 14 0 m 136 1014 l 456 521 l 774 1014 l 892 1014 l 508 431 l 508 0 l 401 0 l 401 431 l 14 1014 l 136 1014 m 632 1285 l 632 1124 l 538 1124 l 538 1285 l 632 1285 m 375 1285 l 375 1124 l 281 1124 l 281 1285 l 375 1285 z "},"Ź":{"ha":856,"x_min":71,"x_max":782,"o":"m 71 0 m 776 1014 l 776 919 l 200 104 l 782 104 l 782 0 l 71 0 l 71 108 l 640 910 l 72 910 l 72 1014 l 776 1014 m 674 1382 l 417 1068 l 317 1068 l 553 1382 l 674 1382 z "},"ź":{"ha":783,"x_min":71,"x_max":717,"o":"m 71 0 m 711 725 l 711 639 l 204 94 l 717 94 l 717 0 l 71 0 l 71 99 l 569 631 l 74 631 l 74 725 l 711 725 m 638 1136 l 381 822 l 281 822 l 517 1136 l 638 1136 z "},"Ż":{"ha":856,"x_min":71,"x_max":782,"o":"m 71 0 m 776 1014 l 776 919 l 200 104 l 782 104 l 782 0 l 71 0 l 71 108 l 640 910 l 72 910 l 72 1014 l 776 1014 m 474 1285 l 474 1124 l 379 1124 l 379 1285 l 474 1285 z "},"ż":{"ha":783,"x_min":71,"x_max":717,"o":"m 71 0 m 711 725 l 711 639 l 204 94 l 717 94 l 717 0 l 71 0 l 71 99 l 569 631 l 74 631 l 74 725 l 711 725 m 436 1039 l 436 878 l 342 878 l 342 1039 l 436 1039 z "},"Ž":{"ha":856,"x_min":71,"x_max":782,"o":"m 71 0 m 776 1014 l 776 919 l 200 104 l 782 104 l 782 0 l 71 0 l 71 108 l 640 910 l 72 910 l 72 1014 l 776 1014 m 265 1382 l 426 1146 l 592 1382 l 686 1382 l 465 1068 l 386 1068 l 169 1382 l 265 1382 z "},"ž":{"ha":783,"x_min":71,"x_max":717,"o":"m 71 0 m 711 725 l 711 639 l 204 94 l 717 94 l 717 0 l 71 0 l 71 99 l 569 631 l 74 631 l 74 725 l 711 725 m 228 1136 l 389 900 l 554 1136 l 649 1136 l 428 822 l 349 822 l 132 1136 l 228 1136 z "},"ƒ":{"ha":625,"x_min":75,"x_max":547,"o":"m 263 708 l 263 814 q 449 1014 263 1014 l 547 1014 l 547 918 l 469 918 q 363 800 363 918 l 363 708 l 544 708 l 544 614 l 363 614 l 363 -46 q 176 -246 363 -246 l 75 -246 l 75 -150 l 156 -150 q 263 -32 263 -150 l 263 614 l 76 614 l 76 708 l 263 708 z "},"Ș":{"ha":835,"x_min":60,"x_max":772,"o":"m 60 0 m 739 1014 l 739 910 l 289 910 q 164 781 164 910 l 164 683 q 276 568 164 568 l 575 568 q 772 367 772 568 l 772 222 q 554 0 772 0 l 67 0 l 67 104 l 543 104 q 669 233 669 104 l 669 358 q 557 474 669 474 l 257 474 q 60 675 60 474 l 60 792 q 278 1014 60 1014 l 739 1014 m 483 -31 l 382 -285 l 303 -285 l 378 -31 l 483 -31 z "},"ș":{"ha":751,"x_min":61,"x_max":696,"o":"m 61 0 m 664 725 l 664 638 l 253 638 q 160 551 160 638 l 160 494 q 246 415 160 415 l 538 415 q 696 267 696 415 l 696 161 q 525 0 696 0 l 68 0 l 68 88 l 499 88 q 597 174 597 88 l 597 256 q 513 335 597 335 l 221 335 q 61 483 61 335 l 61 565 q 228 725 61 725 l 664 725 m 442 -31 l 340 -285 l 261 -285 l 336 -31 l 442 -31 z "},"Ț":{"ha":783,"x_min":35,"x_max":747,"o":"m 35 0 m 747 1014 l 747 910 l 446 910 l 446 0 l 340 0 l 340 910 l 35 910 l 35 1014 l 747 1014 m 444 -31 l 343 -285 l 264 -285 l 339 -31 l 444 -31 z "},"ț":{"ha":474,"x_min":39,"x_max":433,"o":"m 39 0 m 276 961 l 276 725 l 433 725 l 433 635 l 276 635 l 276 0 l 175 0 l 175 635 l 39 635 l 39 725 l 175 725 l 175 961 l 276 961 m 279 -31 l 178 -285 l 99 -285 l 174 -31 l 279 -31 z "},"ˆ":{"ha":724,"x_min":103,"x_max":619,"o":"m 404 1136 l 619 822 l 525 822 l 364 1058 l 199 822 l 103 822 l 325 1136 l 404 1136 z "},"ˇ":{"ha":724,"x_min":103,"x_max":619,"o":"m 199 1136 l 360 900 l 525 1136 l 619 1136 l 399 822 l 319 822 l 103 1136 l 199 1136 z "},"˘":{"ha":701,"x_min":94,"x_max":604,"o":"m 171 1136 q 349 888 175 888 q 528 1136 524 888 l 604 1136 q 541 901 603 979 q 349 822 479 822 q 158 901 219 822 q 94 1136 96 979 l 171 1136 z "},"˙":{"ha":231,"x_min":68,"x_max":163,"o":"m 163 1039 l 163 878 l 68 878 l 68 1039 l 163 1039 z "},"˚":{"ha":457,"x_min":68,"x_max":389,"o":"m 285 1136 q 389 1042 389 1136 l 389 918 q 285 822 389 822 l 172 822 q 68 918 68 822 l 68 1042 q 172 1136 68 1136 l 285 1136 m 124 926 q 182 874 124 874 l 275 874 q 333 926 333 874 l 333 1033 q 275 1085 333 1085 l 182 1085 q 124 1033 124 1085 l 124 926 z "},"˛":{"ha":415,"x_min":68,"x_max":347,"o":"m 283 0 l 347 0 l 213 -58 q 163 -121 163 -81 l 163 -150 q 228 -207 163 -207 l 347 -207 l 347 -285 l 175 -285 q 68 -185 68 -285 l 68 -143 q 85 -85 68 -107 q 144 -49 103 -64 l 283 0 z "},"˜":{"ha":729,"x_min":68,"x_max":661,"o":"m 661 972 l 661 892 l 68 892 l 68 972 l 661 972 z "},"˝":{"ha":792,"x_min":94,"x_max":696,"o":"m 696 1136 l 439 822 l 343 822 l 581 1136 l 696 1136 m 446 1136 l 189 822 l 94 822 l 331 1136 l 446 1136 z "},"̷":{"ha":0,"x_min":-699,"x_max":0,"o":"m 0 907 l -625 -139 l -699 -139 l -74 907 l 0 907 z "},"̸":{"ha":0,"x_min":-775,"x_max":0,"o":"m 0 1153 l -703 -139 l -775 -139 l -72 1153 l 0 1153 z "},"Δ":{"ha":981,"x_min":17,"x_max":958,"o":"m 539 1014 l 958 0 l 17 0 l 425 1014 l 539 1014 m 482 897 l 161 104 l 806 104 l 482 897 z "},"Ω":{"ha":996,"x_min":83,"x_max":914,"o":"m 688 1014 q 914 782 914 1014 l 914 426 q 754 238 914 238 l 658 238 l 658 96 l 914 96 l 914 0 l 589 0 l 589 319 l 717 319 q 817 439 817 319 l 817 769 q 672 918 817 918 l 324 918 q 179 769 179 918 l 179 439 q 279 319 179 319 l 407 319 l 407 0 l 83 0 l 83 96 l 338 96 l 338 238 l 242 238 q 83 426 83 238 l 83 782 q 310 1014 83 1014 l 688 1014 z "},"μ":{"ha":861,"x_min":88,"x_max":779,"o":"m 189 725 l 189 93 l 533 93 q 678 232 678 93 l 678 725 l 779 725 l 779 218 q 553 0 779 0 l 189 0 l 189 -246 l 88 -246 l 88 725 l 189 725 z "},"π":{"ha":944,"x_min":39,"x_max":906,"o":"m 906 725 l 906 631 l 783 631 l 783 0 l 682 0 l 682 631 l 242 631 l 242 0 l 140 0 l 140 631 l 39 631 l 39 725 l 906 725 z "},"Ѐ":{"ha":783,"x_min":88,"x_max":724,"o":"m 88 0 m 718 1014 l 718 910 l 193 910 l 193 565 l 710 565 l 710 465 l 193 465 l 193 104 l 724 104 l 724 0 l 88 0 l 88 1014 l 718 1014 m 278 1382 l 515 1068 l 415 1068 l 158 1382 l 278 1382 z "},"Ё":{"ha":783,"x_min":88,"x_max":724,"o":"m 88 0 m 718 1014 l 718 910 l 193 910 l 193 565 l 710 565 l 710 465 l 193 465 l 193 104 l 724 104 l 724 0 l 88 0 l 88 1014 l 718 1014 m 588 1285 l 588 1124 l 493 1124 l 493 1285 l 588 1285 m 331 1285 l 331 1124 l 236 1124 l 236 1285 l 331 1285 z "},"Ђ":{"ha":1011,"x_min":35,"x_max":929,"o":"m 699 1014 l 699 910 l 399 910 l 399 592 l 703 592 q 929 361 929 592 l 929 -15 q 703 -246 929 -246 l 533 -246 l 533 -142 l 683 -142 q 824 1 824 -142 l 824 351 q 683 494 824 494 l 399 494 l 399 0 l 292 0 l 292 910 l 35 910 l 35 1014 l 699 1014 z "},"Ѓ":{"ha":747,"x_min":88,"x_max":711,"o":"m 88 0 m 649 1382 l 392 1068 l 292 1068 l 528 1382 l 649 1382 m 711 1014 l 711 910 l 193 910 l 193 0 l 88 0 l 88 1014 l 711 1014 z "},"Є":{"ha":783,"x_min":78,"x_max":724,"o":"m 724 1014 l 724 910 l 400 910 q 236 853 289 910 q 183 685 183 797 l 183 565 l 715 565 l 715 465 l 183 465 l 183 329 q 235 160 183 217 q 400 104 288 104 l 724 104 l 724 0 l 399 0 q 78 328 78 0 l 78 686 q 399 1014 78 1014 l 724 1014 z "},"Ѕ":{"ha":835,"x_min":60,"x_max":772,"o":"m 60 0 m 739 1014 l 739 910 l 289 910 q 164 781 164 910 l 164 683 q 276 568 164 568 l 575 568 q 772 367 772 568 l 772 222 q 554 0 772 0 l 67 0 l 67 104 l 543 104 q 669 233 669 104 l 669 358 q 557 474 669 474 l 257 474 q 60 675 60 474 l 60 792 q 278 1014 60 1014 l 739 1014 z "},"І":{"ha":279,"x_min":88,"x_max":193,"o":"m 88 0 m 193 1014 l 193 0 l 88 0 l 88 1014 l 193 1014 z "},"Ї":{"ha":374,"x_min":11,"x_max":363,"o":"m 11 0 m 240 1014 l 240 0 l 135 0 l 135 1014 l 240 1014 m 363 1285 l 363 1124 l 268 1124 l 268 1285 l 363 1285 m 106 1285 l 106 1124 l 11 1124 l 11 1285 l 106 1285 z "},"Ј":{"ha":629,"x_min":35,"x_max":547,"o":"m 35 0 m 547 1014 l 547 231 q 321 0 547 0 l 35 0 l 35 104 l 301 104 q 442 247 442 104 l 442 1014 l 547 1014 z "},"Љ":{"ha":1544,"x_min":35,"x_max":1511,"o":"m 868 1014 l 868 104 l 1264 104 q 1406 238 1406 104 l 1406 338 q 1264 472 1406 472 l 924 472 l 924 571 l 1275 571 q 1511 340 1511 571 l 1511 231 q 1275 0 1511 0 l 761 0 l 761 910 l 438 910 l 339 285 q 253 71 315 139 q 82 1 190 3 l 35 0 l 35 104 l 67 104 q 184 152 140 104 q 244 306 228 200 l 354 1014 l 868 1014 z "},"Њ":{"ha":1490,"x_min":88,"x_max":1457,"o":"m 193 1014 l 193 571 l 707 571 l 707 1014 l 814 1014 l 814 104 l 1210 104 q 1351 238 1351 104 l 1351 338 q 1210 472 1351 472 l 869 472 l 869 571 l 1221 571 q 1457 340 1457 571 l 1457 231 q 1221 0 1457 0 l 707 0 l 707 472 l 193 472 l 193 0 l 88 0 l 88 1014 l 193 1014 z "},"Ћ":{"ha":1011,"x_min":35,"x_max":929,"o":"m 699 1014 l 699 910 l 399 910 l 399 592 l 703 592 q 929 361 929 592 l 929 0 l 824 0 l 824 351 q 683 494 824 494 l 399 494 l 399 0 l 292 0 l 292 910 l 35 910 l 35 1014 l 699 1014 z "},"Ќ":{"ha":869,"x_min":88,"x_max":779,"o":"m 88 0 m 696 1382 l 439 1068 l 339 1068 l 575 1382 l 696 1382 m 193 1014 l 193 567 l 228 567 l 635 1014 l 758 1014 l 317 532 l 779 0 l 651 0 l 228 479 l 193 479 l 193 0 l 88 0 l 88 1014 l 193 1014 z "},"Ѝ":{"ha":900,"x_min":88,"x_max":813,"o":"m 88 0 m 322 1382 l 560 1068 l 460 1068 l 203 1382 l 322 1382 m 193 1014 l 193 185 l 707 1014 l 813 1014 l 813 0 l 707 0 l 707 828 l 193 0 l 88 0 l 88 1014 l 193 1014 z "},"Ў":{"ha":883,"x_min":14,"x_max":869,"o":"m 14 0 m 261 1382 q 439 1133 265 1133 q 618 1382 614 1133 l 694 1382 q 631 1147 693 1225 q 439 1068 569 1068 q 248 1147 310 1068 q 185 1382 186 1225 l 261 1382 m 129 1014 l 444 376 l 756 1014 l 869 1014 l 474 208 q 416 110 444 150 q 353 46 388 71 q 276 10 318 21 q 179 0 235 0 l 115 0 l 115 104 l 188 104 q 252 111 225 104 q 301 134 279 118 q 341 176 322 150 q 379 243 360 203 l 392 268 l 14 1014 l 129 1014 z "},"Џ":{"ha":900,"x_min":88,"x_max":813,"o":"m 496 0 l 496 -246 l 404 -246 l 404 0 l 88 0 l 88 1014 l 193 1014 l 193 104 l 708 104 l 708 1014 l 813 1014 l 813 0 l 496 0 z "},"А":{"ha":981,"x_min":17,"x_max":965,"o":"m 17 0 m 708 344 l 485 894 l 126 0 l 17 0 l 429 1014 l 543 1014 l 965 0 l 847 0 l 747 247 l 282 247 l 319 344 l 708 344 z "},"Б":{"ha":871,"x_min":88,"x_max":836,"o":"m 711 1014 l 711 910 l 193 910 l 193 104 l 589 104 q 731 238 731 104 l 731 338 q 589 472 731 472 l 249 472 l 249 571 l 600 571 q 836 340 836 571 l 836 231 q 600 0 836 0 l 88 0 l 88 1014 l 711 1014 z "},"В":{"ha":872,"x_min":88,"x_max":818,"o":"m 88 0 m 583 1014 q 810 783 810 1014 l 810 689 q 783 579 810 624 q 700 513 756 535 q 818 329 818 471 l 818 219 q 590 0 818 0 l 88 0 l 88 1014 l 583 1014 m 193 104 l 572 104 q 713 236 713 104 l 713 343 q 563 468 713 468 l 249 468 l 249 561 l 563 561 q 707 678 707 561 l 707 767 q 567 910 707 910 l 193 910 l 193 104 z "},"Г":{"ha":747,"x_min":88,"x_max":711,"o":"m 711 1014 l 711 910 l 193 910 l 193 0 l 88 0 l 88 1014 l 711 1014 z "},"Д":{"ha":1049,"x_min":29,"x_max":1018,"o":"m 97 104 q 215 152 171 104 q 275 306 258 200 l 385 1014 l 897 1014 l 897 104 l 1018 104 l 1018 -246 l 926 -246 l 926 0 l 121 0 l 121 -246 l 29 -246 l 29 104 l 97 104 m 792 104 l 792 910 l 468 910 l 369 285 q 308 104 350 168 l 792 104 z "},"Е":{"ha":783,"x_min":88,"x_max":724,"o":"m 88 0 m 718 1014 l 718 910 l 193 910 l 193 565 l 710 565 l 710 465 l 193 465 l 193 104 l 724 104 l 724 0 l 88 0 l 88 1014 l 718 1014 z "},"Ж":{"ha":1318,"x_min":18,"x_max":1299,"o":"m 711 1014 l 711 567 l 747 567 l 1154 1014 l 1276 1014 l 836 532 l 1299 0 l 1169 0 l 747 479 l 711 479 l 711 0 l 606 0 l 606 479 l 569 479 l 147 0 l 18 0 l 481 532 l 40 1014 l 163 1014 l 569 567 l 606 567 l 606 1014 l 711 1014 z "},"З":{"ha":775,"x_min":58,"x_max":721,"o":"m 486 1014 q 713 783 713 1014 l 713 689 q 685 578 713 624 q 603 513 658 533 q 721 329 721 471 l 721 219 q 494 0 721 0 l 58 0 l 58 104 l 475 104 q 617 236 617 104 l 617 339 q 467 464 617 464 l 299 464 l 299 564 l 467 564 q 610 681 610 564 l 610 767 q 471 910 610 910 l 64 910 l 64 1014 l 486 1014 z "},"И":{"ha":900,"x_min":88,"x_max":813,"o":"m 193 1014 l 193 185 l 707 1014 l 813 1014 l 813 0 l 707 0 l 707 828 l 193 0 l 88 0 l 88 1014 l 193 1014 z "},"Й":{"ha":900,"x_min":88,"x_max":813,"o":"m 88 0 m 269 1382 q 447 1133 274 1133 q 626 1382 622 1133 l 703 1382 q 640 1147 701 1225 q 447 1068 578 1068 q 256 1147 318 1068 q 193 1382 194 1225 l 269 1382 m 193 1014 l 193 185 l 707 1014 l 813 1014 l 813 0 l 707 0 l 707 828 l 193 0 l 88 0 l 88 1014 l 193 1014 z "},"К":{"ha":799,"x_min":88,"x_max":779,"o":"m 193 1014 l 193 567 l 228 567 l 635 1014 l 758 1014 l 317 532 l 779 0 l 651 0 l 228 479 l 193 479 l 193 0 l 88 0 l 88 1014 l 193 1014 z "},"Л":{"ha":954,"x_min":35,"x_max":867,"o":"m 867 1014 l 867 0 l 761 0 l 761 910 l 438 910 l 339 285 q 253 71 315 139 q 82 1 190 3 l 35 0 l 35 104 l 67 104 q 184 152 140 104 q 244 306 228 200 l 354 1014 l 867 1014 z "},"М":{"ha":1117,"x_min":88,"x_max":1029,"o":"m 88 0 m 213 1014 l 561 115 l 906 1014 l 1029 1014 l 1029 0 l 931 0 l 931 818 l 611 0 l 510 0 l 185 819 l 185 0 l 88 0 l 88 1014 l 213 1014 z "},"Н":{"ha":900,"x_min":88,"x_max":813,"o":"m 88 0 m 193 1014 l 193 571 l 707 571 l 707 1014 l 813 1014 l 813 0 l 707 0 l 707 472 l 193 472 l 193 0 l 88 0 l 88 1014 l 193 1014 z "},"О":{"ha":929,"x_min":78,"x_max":853,"o":"m 78 0 m 626 1014 q 853 783 853 1014 l 853 231 q 626 0 853 0 l 304 0 q 78 231 78 0 l 78 783 q 304 1014 78 1014 l 626 1014 m 183 247 q 324 104 183 104 l 606 104 q 746 247 746 104 l 746 767 q 606 910 746 910 l 324 910 q 183 767 183 910 l 183 247 z "},"П":{"ha":900,"x_min":88,"x_max":813,"o":"m 813 1014 l 813 0 l 707 0 l 707 910 l 192 910 l 192 0 l 88 0 l 88 1014 l 813 1014 z "},"Р":{"ha":871,"x_min":88,"x_max":836,"o":"m 88 0 m 610 1014 q 836 782 836 1014 l 836 683 q 610 451 836 451 l 249 451 l 249 550 l 600 550 q 731 685 731 550 l 731 775 q 600 910 731 910 l 193 910 l 193 0 l 88 0 l 88 1014 l 610 1014 z "},"С":{"ha":788,"x_min":78,"x_max":724,"o":"m 78 0 m 724 1014 l 724 910 l 324 910 q 183 767 183 910 l 183 247 q 324 104 183 104 l 724 104 l 724 0 l 304 0 q 78 231 78 0 l 78 783 q 304 1014 78 1014 l 724 1014 z "},"Т":{"ha":783,"x_min":35,"x_max":747,"o":"m 35 0 m 747 1014 l 747 910 l 446 910 l 446 0 l 340 0 l 340 910 l 35 910 l 35 1014 l 747 1014 z "},"У":{"ha":883,"x_min":14,"x_max":869,"o":"m 129 1014 l 444 376 l 756 1014 l 869 1014 l 474 208 q 416 110 444 150 q 353 46 388 71 q 276 10 318 21 q 179 0 235 0 l 115 0 l 115 104 l 188 104 q 252 111 225 104 q 301 134 279 118 q 341 176 322 150 q 379 243 360 203 l 392 268 l 14 1014 l 129 1014 z "},"Ф":{"ha":1035,"x_min":49,"x_max":986,"o":"m 568 1014 l 568 875 l 760 875 q 986 644 986 875 l 986 369 q 760 139 986 139 l 568 139 l 568 0 l 465 0 l 465 139 l 275 139 q 49 369 49 139 l 49 644 q 275 875 49 875 l 465 875 l 465 1014 l 568 1014 m 568 774 l 568 239 l 743 239 q 883 382 883 239 l 883 632 q 743 774 883 774 l 568 774 m 151 382 q 292 239 151 239 l 465 239 l 465 774 l 292 774 q 151 632 151 774 l 151 382 z "},"Х":{"ha":910,"x_min":19,"x_max":890,"o":"m 19 0 m 167 1014 l 465 596 l 772 1014 l 889 1014 l 524 513 l 890 0 l 765 0 l 456 435 l 138 0 l 19 0 l 397 517 l 44 1014 l 167 1014 z "},"Ц":{"ha":965,"x_min":88,"x_max":935,"o":"m 813 104 l 935 104 l 935 -246 l 843 -246 l 843 0 l 88 0 l 88 1014 l 193 1014 l 193 104 l 708 104 l 708 1014 l 813 1014 l 813 104 z "},"Ч":{"ha":875,"x_min":81,"x_max":789,"o":"m 186 1014 l 186 713 q 326 569 186 569 l 683 569 l 683 1014 l 789 1014 l 789 0 l 683 0 l 683 472 l 307 472 q 81 703 81 472 l 81 1014 l 186 1014 z "},"Ш":{"ha":1274,"x_min":88,"x_max":1186,"o":"m 193 1014 l 193 104 l 583 104 l 583 1014 l 689 1014 l 689 104 l 1081 104 l 1081 1014 l 1186 1014 l 1186 0 l 88 0 l 88 1014 l 193 1014 z "},"Щ":{"ha":1338,"x_min":88,"x_max":1308,"o":"m 193 1014 l 193 104 l 583 104 l 583 1014 l 689 1014 l 689 104 l 1081 104 l 1081 1014 l 1186 1014 l 1186 104 l 1308 104 l 1308 -246 l 1217 -246 l 1217 0 l 88 0 l 88 1014 l 193 1014 z "},"Ъ":{"ha":1071,"x_min":35,"x_max":1036,"o":"m 393 1014 l 393 104 l 789 104 q 931 238 931 104 l 931 338 q 789 472 931 472 l 449 472 l 449 571 l 800 571 q 1036 340 1036 571 l 1036 231 q 800 0 1036 0 l 288 0 l 288 910 l 35 910 l 35 1014 l 393 1014 z "},"Ы":{"ha":1193,"x_min":88,"x_max":1107,"o":"m 88 0 m 1107 1014 l 1107 0 l 1001 0 l 1001 1014 l 1107 1014 m 193 1014 l 193 104 l 589 104 q 731 238 731 104 l 731 338 q 589 472 731 472 l 249 472 l 249 571 l 600 571 q 836 340 836 571 l 836 231 q 600 0 836 0 l 88 0 l 88 1014 l 193 1014 z "},"Ь":{"ha":871,"x_min":88,"x_max":836,"o":"m 193 1014 l 193 104 l 589 104 q 731 238 731 104 l 731 338 q 589 472 731 472 l 249 472 l 249 571 l 600 571 q 836 340 836 571 l 836 231 q 600 0 836 0 l 88 0 l 88 1014 l 193 1014 z "},"Э":{"ha":783,"x_min":60,"x_max":706,"o":"m 385 1014 q 706 686 706 1014 l 706 328 q 385 0 706 0 l 60 0 l 60 104 l 383 104 q 548 160 496 104 q 600 329 600 217 l 600 465 l 68 465 l 68 565 l 600 565 l 600 685 q 547 853 600 797 q 383 910 494 910 l 60 910 l 60 1014 l 385 1014 z "},"Ю":{"ha":1313,"x_min":131,"x_max":1235,"o":"m 1010 1014 q 1235 783 1235 1014 l 1235 231 q 1010 0 1235 0 l 728 0 q 501 231 501 0 l 501 465 l 236 465 l 236 0 l 131 0 l 131 1014 l 236 1014 l 236 565 l 501 565 l 501 783 q 728 1014 501 1014 l 1010 1014 m 607 247 q 747 104 607 104 l 989 104 q 1129 247 1129 104 l 1129 767 q 989 910 1129 910 l 747 910 q 607 767 607 910 l 607 247 z "},"Я":{"ha":897,"x_min":4,"x_max":810,"o":"m 810 1014 l 810 0 l 704 0 l 704 910 l 297 910 q 190 801 190 910 l 190 668 q 297 563 190 563 l 649 563 l 649 481 l 144 0 l 4 0 l 510 478 l 279 478 q 135 526 182 478 q 88 667 88 575 l 88 818 q 281 1014 88 1014 l 810 1014 z "},"а":{"ha":824,"x_min":72,"x_max":747,"o":"m 72 0 m 521 725 q 747 493 747 725 l 747 232 q 521 0 747 0 l 265 0 q 72 192 72 0 l 72 249 q 256 410 72 410 l 590 410 l 590 328 l 282 328 q 169 232 169 328 l 169 199 q 283 88 169 88 l 504 88 q 646 235 646 88 l 646 483 q 508 626 646 626 l 94 626 l 94 725 l 521 725 z "},"б":{"ha":854,"x_min":82,"x_max":774,"o":"m 340 1024 l 489 1024 l 236 804 q 194 751 206 776 q 183 690 183 725 l 183 249 q 326 100 183 100 l 528 100 q 672 249 672 100 l 672 449 q 528 597 672 597 l 239 597 l 239 697 l 547 697 q 774 465 774 697 l 774 232 q 547 0 774 0 l 308 0 q 82 232 82 0 l 82 694 q 101 788 82 749 q 164 867 119 826 l 340 1024 z "},"в":{"ha":881,"x_min":88,"x_max":807,"o":"m 603 725 q 799 572 799 725 l 799 511 q 707 379 799 413 q 807 242 807 346 l 807 158 q 614 0 807 0 l 88 0 l 88 725 l 603 725 m 189 100 l 597 100 q 706 188 706 100 l 706 247 q 576 339 706 339 l 244 339 l 244 414 l 576 414 q 700 499 700 414 l 700 550 q 589 632 700 632 l 189 632 l 189 100 z "},"г":{"ha":708,"x_min":88,"x_max":669,"o":"m 669 725 l 669 624 l 189 624 l 189 0 l 88 0 l 88 725 l 669 725 z "},"д":{"ha":935,"x_min":29,"x_max":906,"o":"m 88 101 q 179 139 144 107 q 229 242 214 171 l 326 725 l 796 725 l 796 101 l 906 101 l 906 -219 l 814 -219 l 814 0 l 121 0 l 121 -219 l 29 -219 l 29 101 l 88 101 m 694 100 l 694 624 l 401 624 l 317 210 q 300 149 310 176 q 276 100 290 122 l 694 100 z "},"е":{"ha":824,"x_min":78,"x_max":753,"o":"m 78 0 m 558 725 q 753 533 753 725 l 753 475 q 569 315 753 315 l 233 315 l 233 397 l 542 397 q 654 493 654 397 l 654 526 q 540 638 654 638 l 321 638 q 178 490 178 638 l 178 242 q 317 99 178 99 l 729 99 l 729 0 l 304 0 q 78 232 78 0 l 78 493 q 304 725 78 725 l 558 725 z "},"ж":{"ha":1214,"x_min":13,"x_max":1200,"o":"m 657 725 l 657 417 l 758 417 l 1058 725 l 1179 725 l 847 389 l 1200 0 l 1078 0 l 758 346 l 657 346 l 657 0 l 556 0 l 556 346 l 454 346 l 135 0 l 13 0 l 365 389 l 33 725 l 154 725 l 454 417 l 556 417 l 556 725 l 657 725 z "},"з":{"ha":794,"x_min":75,"x_max":722,"o":"m 518 725 q 714 572 714 725 l 714 511 q 622 379 714 413 q 722 242 722 347 l 722 158 q 529 0 722 0 l 75 0 l 75 100 l 514 100 q 622 188 622 100 l 622 247 q 493 339 622 339 l 290 339 l 290 414 l 493 414 q 617 499 617 414 l 617 550 q 504 632 617 632 l 75 632 l 75 725 l 518 725 z "},"и":{"ha":861,"x_min":88,"x_max":779,"o":"m 189 725 l 189 150 l 678 725 l 779 725 l 779 0 l 678 0 l 678 579 l 189 0 l 88 0 l 88 725 l 189 725 z "},"й":{"ha":861,"x_min":88,"x_max":779,"o":"m 88 0 m 250 1136 q 428 888 254 888 q 607 1136 603 888 l 683 1136 q 620 901 682 979 q 428 822 558 822 q 237 901 299 822 q 174 1136 175 979 l 250 1136 m 189 725 l 189 150 l 678 725 l 779 725 l 779 0 l 678 0 l 678 579 l 189 0 l 88 0 l 88 725 l 189 725 z "},"к":{"ha":744,"x_min":88,"x_max":731,"o":"m 189 725 l 189 417 l 290 417 l 589 725 l 711 725 l 379 389 l 731 0 l 610 0 l 290 346 l 189 346 l 189 0 l 88 0 l 88 725 l 189 725 z "},"л":{"ha":888,"x_min":39,"x_max":806,"o":"m 806 725 l 806 0 l 704 0 l 704 624 l 411 624 l 326 210 q 244 49 303 99 q 78 0 186 0 l 39 0 l 39 100 l 72 100 q 181 131 140 100 q 239 242 222 163 l 336 725 l 806 725 z "},"м":{"ha":1119,"x_min":88,"x_max":1038,"o":"m 219 725 l 565 93 l 908 725 l 1038 725 l 1038 0 l 939 0 l 939 585 l 618 0 l 514 0 l 186 585 l 186 0 l 88 0 l 88 725 l 219 725 z "},"н":{"ha":861,"x_min":88,"x_max":779,"o":"m 189 725 l 189 447 l 678 447 l 678 725 l 779 725 l 779 0 l 678 0 l 678 351 l 189 351 l 189 0 l 88 0 l 88 725 l 189 725 z "},"о":{"ha":854,"x_min":78,"x_max":776,"o":"m 78 0 m 550 725 q 776 493 776 725 l 776 232 q 550 0 776 0 l 304 0 q 78 232 78 0 l 78 493 q 304 725 78 725 l 550 725 m 179 249 q 324 100 179 100 l 531 100 q 675 249 675 100 l 675 476 q 531 624 675 624 l 324 624 q 179 476 179 624 l 179 249 z "},"п":{"ha":861,"x_min":88,"x_max":779,"o":"m 779 725 l 779 0 l 678 0 l 678 624 l 189 624 l 189 0 l 88 0 l 88 725 l 779 725 z "},"р":{"ha":851,"x_min":82,"x_max":774,"o":"m 82 0 m 547 725 q 774 493 774 725 l 774 232 q 547 0 774 0 l 239 0 l 239 100 l 528 100 q 672 249 672 100 l 672 476 q 528 624 672 624 l 326 624 q 183 476 183 624 l 183 -246 l 82 -246 l 82 493 q 308 725 82 725 l 547 725 z "},"с":{"ha":693,"x_min":78,"x_max":628,"o":"m 78 0 m 628 725 l 628 624 l 324 624 q 179 476 179 624 l 179 249 q 324 100 179 100 l 628 100 l 628 0 l 304 0 q 78 232 78 0 l 78 493 q 304 725 78 725 l 628 725 z "},"т":{"ha":783,"x_min":36,"x_max":749,"o":"m 749 725 l 749 624 l 444 624 l 444 0 l 342 0 l 342 624 l 36 624 l 36 725 l 749 725 z "},"у":{"ha":861,"x_min":82,"x_max":774,"o":"m 82 0 m 183 725 l 183 278 q 326 139 183 139 l 672 139 l 672 725 l 774 725 l 774 0 q 547 -246 774 -246 l 215 -246 l 215 -147 l 528 -147 q 672 11 672 -147 l 672 44 l 308 44 q 82 263 82 44 l 82 725 l 183 725 z "},"ф":{"ha":1176,"x_min":78,"x_max":1100,"o":"m 638 1024 l 638 721 l 872 721 q 1100 489 1100 721 l 1100 232 q 872 0 1100 0 l 638 0 l 638 -246 l 536 -246 l 536 0 l 304 0 q 78 232 78 0 l 78 489 q 304 721 78 721 l 536 721 l 536 1024 l 638 1024 m 638 622 l 638 99 l 853 99 q 997 247 997 99 l 997 474 q 853 622 997 622 l 638 622 m 179 247 q 324 99 179 99 l 536 99 l 536 622 l 324 622 q 179 474 179 622 l 179 247 z "},"х":{"ha":833,"x_min":14,"x_max":821,"o":"m 14 0 m 819 725 l 486 367 l 821 0 l 693 0 l 417 306 l 133 0 l 14 0 l 357 369 l 36 725 l 161 725 l 429 431 l 700 725 l 819 725 z "},"ц":{"ha":904,"x_min":86,"x_max":874,"o":"m 874 101 l 874 -219 l 782 -219 l 782 0 l 86 0 l 86 725 l 188 725 l 188 101 l 676 101 l 676 725 l 778 725 l 778 101 l 874 101 z "},"ч":{"ha":861,"x_min":88,"x_max":779,"o":"m 189 725 l 189 554 q 332 407 189 407 l 678 407 l 678 725 l 779 725 l 779 0 l 678 0 l 678 315 l 314 315 q 88 547 88 315 l 88 725 l 189 725 z "},"ш":{"ha":1236,"x_min":88,"x_max":1150,"o":"m 189 725 l 189 100 l 568 100 l 568 725 l 669 725 l 669 100 l 1049 100 l 1049 725 l 1150 725 l 1150 0 l 88 0 l 88 725 l 189 725 z "},"щ":{"ha":1288,"x_min":88,"x_max":1257,"o":"m 1257 101 l 1257 -219 l 1165 -219 l 1165 0 l 88 0 l 88 725 l 189 725 l 189 100 l 568 100 l 568 725 l 669 725 l 669 100 l 1049 100 l 1049 725 l 1150 725 l 1150 101 l 1257 101 z "},"ъ":{"ha":969,"x_min":39,"x_max":896,"o":"m 306 725 l 306 94 l 682 94 q 794 203 794 94 l 794 256 q 682 360 794 360 l 360 360 l 360 456 l 699 456 q 896 267 896 456 l 896 196 q 699 0 896 0 l 204 0 l 204 625 l 39 625 l 39 725 l 306 725 z "},"ы":{"ha":1067,"x_min":82,"x_max":982,"o":"m 82 0 m 183 725 l 183 94 l 560 94 q 672 203 672 94 l 672 256 q 560 360 672 360 l 238 360 l 238 456 l 576 456 q 774 267 774 456 l 774 196 q 576 0 774 0 l 82 0 l 82 725 l 183 725 m 982 725 l 982 0 l 881 0 l 881 725 l 982 725 z "},"ь":{"ha":847,"x_min":82,"x_max":774,"o":"m 183 725 l 183 94 l 560 94 q 672 203 672 94 l 672 256 q 560 360 672 360 l 238 360 l 238 456 l 576 456 q 774 267 774 456 l 774 196 q 576 0 774 0 l 82 0 l 82 725 l 183 725 z "},"э":{"ha":703,"x_min":75,"x_max":625,"o":"m 371 725 q 625 479 625 725 l 625 246 q 371 0 625 0 l 75 0 l 75 96 l 357 96 q 524 253 524 96 l 524 328 l 75 328 l 75 406 l 524 406 l 524 474 q 357 631 524 631 l 75 631 l 75 725 l 371 725 z "},"ю":{"ha":1144,"x_min":88,"x_max":1067,"o":"m 189 725 l 189 431 l 389 431 l 389 493 q 615 725 389 725 l 840 725 q 1067 493 1067 725 l 1067 232 q 840 0 1067 0 l 615 0 q 389 232 389 0 l 389 347 l 189 347 l 189 0 l 88 0 l 88 725 l 189 725 m 492 249 q 635 100 492 100 l 821 100 q 965 249 965 100 l 965 476 q 821 624 965 624 l 635 624 q 492 476 492 624 l 492 249 z "},"я":{"ha":844,"x_min":42,"x_max":763,"o":"m 763 725 l 763 0 l 661 0 l 661 631 l 282 631 q 188 560 188 631 l 188 469 q 282 400 188 400 l 606 400 l 606 331 l 175 0 l 42 0 l 468 328 l 253 328 q 90 464 90 328 l 90 585 q 258 725 90 725 l 763 725 z "},"ѐ":{"ha":824,"x_min":78,"x_max":753,"o":"m 78 0 m 558 725 q 753 533 753 725 l 753 475 q 569 315 753 315 l 233 315 l 233 397 l 542 397 q 654 493 654 397 l 654 526 q 540 638 654 638 l 321 638 q 178 490 178 638 l 178 242 q 317 99 178 99 l 729 99 l 729 0 l 304 0 q 78 232 78 0 l 78 493 q 304 725 78 725 l 558 725 m 285 1136 l 522 822 l 422 822 l 165 1136 l 285 1136 z "},"ё":{"ha":824,"x_min":78,"x_max":753,"o":"m 78 0 m 558 725 q 753 533 753 725 l 753 475 q 569 315 753 315 l 233 315 l 233 397 l 542 397 q 654 493 654 397 l 654 526 q 540 638 654 638 l 321 638 q 178 490 178 638 l 178 242 q 317 99 178 99 l 729 99 l 729 0 l 304 0 q 78 232 78 0 l 78 493 q 304 725 78 725 l 558 725 m 600 1039 l 600 878 l 506 878 l 506 1039 l 600 1039 m 343 1039 l 343 878 l 249 878 l 249 1039 l 343 1039 z "},"ђ":{"ha":861,"x_min":0,"x_max":776,"o":"m 85 903 l 85 1024 l 186 1024 l 186 903 l 593 903 l 593 822 l 186 822 l 186 725 l 550 725 q 776 493 776 725 l 776 -36 q 585 -246 776 -246 l 519 -246 l 519 -147 l 565 -147 q 675 -25 675 -147 l 675 476 q 531 624 675 624 l 186 624 l 186 0 l 85 0 l 85 822 l 0 822 l 0 903 l 85 903 z "},"ѓ":{"ha":708,"x_min":88,"x_max":669,"o":"m 88 0 m 628 1136 l 371 822 l 271 822 l 507 1136 l 628 1136 m 669 725 l 669 624 l 189 624 l 189 0 l 88 0 l 88 725 l 669 725 z "},"є":{"ha":701,"x_min":78,"x_max":628,"o":"m 628 725 l 628 631 l 346 631 q 179 474 179 631 l 179 406 l 628 406 l 628 328 l 179 328 l 179 253 q 346 96 179 96 l 628 96 l 628 0 l 331 0 q 78 246 78 0 l 78 479 q 331 725 78 725 l 628 725 z "},"ѕ":{"ha":751,"x_min":61,"x_max":696,"o":"m 61 0 m 664 725 l 664 638 l 253 638 q 160 551 160 638 l 160 494 q 246 415 160 415 l 538 415 q 696 267 696 415 l 696 161 q 525 0 696 0 l 68 0 l 68 88 l 499 88 q 597 174 597 88 l 597 256 q 513 335 597 335 l 221 335 q 61 483 61 335 l 61 565 q 228 725 61 725 l 664 725 z "},"і":{"ha":413,"x_min":88,"x_max":189,"o":"m 88 0 m 189 718 l 189 0 l 88 0 l 88 718 l 189 718 m 189 1024 l 189 863 l 88 863 l 88 1024 l 189 1024 z "},"ї":{"ha":390,"x_min":19,"x_max":371,"o":"m 19 0 m 371 1039 l 371 878 l 276 878 l 276 1039 l 371 1039 m 114 1039 l 114 878 l 19 878 l 19 1039 l 114 1039 m 246 725 l 246 0 l 144 0 l 144 725 l 246 725 z "},"ј":{"ha":358,"x_min":14,"x_max":271,"o":"m 14 0 m 271 718 l 271 -36 q 79 -246 271 -246 l 14 -246 l 14 -147 l 60 -147 q 169 -25 169 -147 l 169 718 l 271 718 m 271 1024 l 271 863 l 169 863 l 169 1024 l 271 1024 z "},"љ":{"ha":1471,"x_min":39,"x_max":1397,"o":"m 807 725 l 807 94 l 1183 94 q 1296 203 1296 94 l 1296 256 q 1183 360 1296 360 l 861 360 l 861 456 l 1200 456 q 1397 267 1397 456 l 1397 196 q 1200 0 1397 0 l 704 0 l 704 624 l 411 624 l 326 210 q 244 49 303 99 q 78 0 186 0 l 39 0 l 39 100 l 72 100 q 181 131 140 100 q 239 242 222 163 l 336 725 l 807 725 z "},"њ":{"ha":1444,"x_min":88,"x_max":1371,"o":"m 189 725 l 189 447 l 678 447 l 678 725 l 781 725 l 781 94 l 1157 94 q 1269 203 1269 94 l 1269 256 q 1157 360 1269 360 l 835 360 l 835 456 l 1174 456 q 1371 267 1371 456 l 1371 196 q 1174 0 1371 0 l 678 0 l 678 351 l 189 351 l 189 0 l 88 0 l 88 725 l 189 725 z "},"ћ":{"ha":861,"x_min":0,"x_max":779,"o":"m 88 903 l 88 1024 l 189 1024 l 189 903 l 593 903 l 593 822 l 189 822 l 189 725 l 553 725 q 779 493 779 725 l 779 0 l 678 0 l 678 476 q 533 624 678 624 l 189 624 l 189 0 l 88 0 l 88 822 l 0 822 l 0 903 l 88 903 z "},"ќ":{"ha":832,"x_min":88,"x_max":731,"o":"m 88 0 m 661 1136 l 404 822 l 304 822 l 540 1136 l 661 1136 m 189 725 l 189 417 l 290 417 l 589 725 l 711 725 l 379 389 l 731 0 l 610 0 l 290 346 l 189 346 l 189 0 l 88 0 l 88 725 l 189 725 z "},"ѝ":{"ha":861,"x_min":88,"x_max":779,"o":"m 88 0 m 303 1136 l 540 822 l 440 822 l 183 1136 l 303 1136 m 189 725 l 189 150 l 678 725 l 779 725 l 779 0 l 678 0 l 678 579 l 189 0 l 88 0 l 88 725 l 189 725 z "},"ў":{"ha":861,"x_min":82,"x_max":774,"o":"m 82 0 m 183 725 l 183 278 q 326 139 183 139 l 672 139 l 672 725 l 774 725 l 774 0 q 547 -246 774 -246 l 215 -246 l 215 -147 l 528 -147 q 672 11 672 -147 l 672 44 l 308 44 q 82 263 82 44 l 82 725 l 183 725 m 250 1136 q 428 888 254 888 q 607 1136 603 888 l 683 1136 q 620 901 682 979 q 428 822 558 822 q 237 901 299 822 q 174 1136 175 979 l 250 1136 z "},"џ":{"ha":865,"x_min":86,"x_max":778,"o":"m 476 0 l 476 -219 l 385 -219 l 385 0 l 86 0 l 86 725 l 188 725 l 188 101 l 676 101 l 676 725 l 778 725 l 778 0 l 476 0 z "},"Ẁ":{"ha":1290,"x_min":19,"x_max":1272,"o":"m 19 0 m 129 1014 l 349 178 l 596 1014 l 701 1014 l 940 175 l 1163 1014 l 1272 1014 l 996 0 l 889 0 l 647 865 l 397 0 l 292 0 l 19 1014 l 129 1014 m 518 1382 l 756 1068 l 656 1068 l 399 1382 l 518 1382 z "},"ẁ":{"ha":1179,"x_min":18,"x_max":1161,"o":"m 18 0 m 122 725 l 318 131 l 542 725 l 642 725 l 858 129 l 1058 725 l 1161 725 l 911 0 l 811 0 l 590 613 l 364 0 l 265 0 l 18 725 l 122 725 m 461 1136 l 699 822 l 599 822 l 342 1136 l 461 1136 z "},"Ẃ":{"ha":1290,"x_min":19,"x_max":1272,"o":"m 19 0 m 129 1014 l 349 178 l 596 1014 l 701 1014 l 940 175 l 1163 1014 l 1272 1014 l 996 0 l 889 0 l 647 865 l 397 0 l 292 0 l 19 1014 l 129 1014 m 890 1382 l 633 1068 l 533 1068 l 769 1382 l 890 1382 z "},"ẃ":{"ha":1179,"x_min":18,"x_max":1161,"o":"m 18 0 m 122 725 l 318 131 l 542 725 l 642 725 l 858 129 l 1058 725 l 1161 725 l 911 0 l 811 0 l 590 613 l 364 0 l 265 0 l 18 725 l 122 725 m 835 1136 l 578 822 l 478 822 l 714 1136 l 835 1136 z "},"Ẅ":{"ha":1290,"x_min":19,"x_max":1272,"o":"m 19 0 m 129 1014 l 349 178 l 596 1014 l 701 1014 l 940 175 l 1163 1014 l 1272 1014 l 996 0 l 889 0 l 647 865 l 397 0 l 292 0 l 19 1014 l 129 1014 m 822 1285 l 822 1124 l 728 1124 l 728 1285 l 822 1285 m 565 1285 l 565 1124 l 471 1124 l 471 1285 l 565 1285 z "},"ẅ":{"ha":1179,"x_min":18,"x_max":1161,"o":"m 18 0 m 122 725 l 318 131 l 542 725 l 642 725 l 858 129 l 1058 725 l 1161 725 l 911 0 l 811 0 l 590 613 l 364 0 l 265 0 l 18 725 l 122 725 m 767 1039 l 767 878 l 672 878 l 672 1039 l 767 1039 m 510 1039 l 510 878 l 415 878 l 415 1039 l 510 1039 z "},"Ỳ":{"ha":906,"x_min":14,"x_max":892,"o":"m 14 0 m 136 1014 l 456 521 l 774 1014 l 892 1014 l 508 431 l 508 0 l 401 0 l 401 431 l 14 1014 l 136 1014 m 325 1382 l 563 1068 l 463 1068 l 206 1382 l 325 1382 z "},"ỳ":{"ha":861,"x_min":82,"x_max":774,"o":"m 82 0 m 183 725 l 183 278 q 326 139 183 139 l 672 139 l 672 725 l 774 725 l 774 0 q 547 -246 774 -246 l 215 -246 l 215 -147 l 528 -147 q 672 11 672 -147 l 672 44 l 308 44 q 82 263 82 44 l 82 725 l 183 725 m 303 1136 l 540 822 l 440 822 l 183 1136 l 303 1136 z "},"–":{"ha":711,"x_min":35,"x_max":676,"o":"m 676 485 l 676 399 l 35 399 l 35 485 l 676 485 z "},"—":{"ha":1017,"x_min":35,"x_max":982,"o":"m 982 485 l 982 399 l 35 399 l 35 485 l 982 485 z "},"‘":{"ha":238,"x_min":68,"x_max":169,"o":"m 68 665 l 68 814 l 101 1014 l 153 1014 l 136 824 l 169 824 l 169 665 l 68 665 z "},"’":{"ha":238,"x_min":68,"x_max":169,"o":"m 68 665 m 169 1014 l 169 865 l 136 665 l 85 665 l 101 856 l 68 856 l 68 1014 l 169 1014 z "},"‚":{"ha":238,"x_min":68,"x_max":169,"o":"m 68 0 m 169 163 l 169 14 l 136 -186 l 85 -186 l 101 4 l 68 4 l 68 163 l 169 163 z "},"“":{"ha":421,"x_min":68,"x_max":353,"o":"m 251 665 l 251 814 l 285 1014 l 336 1014 l 319 824 l 353 824 l 353 665 l 251 665 m 68 665 l 68 814 l 101 1014 l 153 1014 l 136 824 l 169 824 l 169 665 l 68 665 z "},"”":{"ha":421,"x_min":68,"x_max":353,"o":"m 68 665 m 353 1014 l 353 865 l 319 665 l 268 665 l 285 856 l 251 856 l 251 1014 l 353 1014 m 169 1014 l 169 865 l 136 665 l 85 665 l 101 856 l 68 856 l 68 1014 l 169 1014 z "},"„":{"ha":421,"x_min":68,"x_max":353,"o":"m 68 0 m 353 163 l 353 14 l 319 -186 l 268 -186 l 285 4 l 251 4 l 251 163 l 353 163 m 169 163 l 169 14 l 136 -186 l 85 -186 l 101 4 l 68 4 l 68 163 l 169 163 z "},"†":{"ha":668,"x_min":68,"x_max":600,"o":"m 375 1014 l 368 756 l 600 756 l 600 686 l 368 686 l 354 0 l 313 0 l 300 686 l 68 686 l 68 756 l 300 756 l 292 1014 l 375 1014 z "},"‡":{"ha":668,"x_min":68,"x_max":600,"o":"m 375 1014 l 368 756 l 600 756 l 600 686 l 368 686 l 347 418 l 368 150 l 600 150 l 600 81 l 368 81 l 375 -178 l 292 -178 l 300 81 l 68 81 l 68 150 l 300 150 l 319 418 l 300 686 l 68 686 l 68 756 l 300 756 l 292 1014 l 375 1014 z "},"•":{"ha":561,"x_min":54,"x_max":507,"o":"m 507 321 l 54 321 l 279 721 l 507 321 z "},"…":{"ha":875,"x_min":83,"x_max":792,"o":"m 83 0 m 488 161 l 488 0 l 386 0 l 386 161 l 488 161 m 792 161 l 792 0 l 690 0 l 690 161 l 792 161 m 185 161 l 185 0 l 83 0 l 83 161 l 185 161 z "},"‰":{"ha":1531,"x_min":31,"x_max":1488,"o":"m 31 0 m 890 1014 l 247 0 l 164 0 l 808 1014 l 890 1014 m 890 565 q 1019 432 1019 565 l 1019 132 q 890 0 1019 0 l 736 0 q 606 132 606 0 l 606 432 q 736 565 606 565 l 890 565 m 676 143 q 749 69 676 69 l 878 69 q 949 143 949 69 l 949 421 q 878 494 949 494 l 749 494 q 676 421 676 494 l 676 143 m 1358 565 q 1488 432 1488 565 l 1488 132 q 1358 0 1488 0 l 1204 0 q 1074 132 1074 0 l 1074 432 q 1204 565 1074 565 l 1358 565 m 1144 143 q 1217 69 1144 69 l 1346 69 q 1417 143 1417 69 l 1417 421 q 1346 494 1417 494 l 1217 494 q 1144 421 1144 494 l 1144 143 m 315 1014 q 444 881 444 1014 l 444 581 q 315 449 444 449 l 161 449 q 31 581 31 449 l 31 881 q 161 1014 31 1014 l 315 1014 m 101 592 q 174 518 101 518 l 303 518 q 374 592 374 518 l 374 869 q 303 943 374 943 l 174 943 q 101 869 101 943 l 101 592 z "},"‹":{"ha":425,"x_min":35,"x_max":390,"o":"m 390 725 l 390 624 l 101 363 l 390 100 l 390 0 l 35 328 l 35 399 l 390 725 z "},"›":{"ha":426,"x_min":36,"x_max":392,"o":"m 36 0 l 36 101 l 325 361 l 36 625 l 36 725 l 392 397 l 392 326 l 36 0 z "},"⁄":{"ha":242,"x_min":-243,"x_max":483,"o":"m 483 1014 l -160 0 l -243 0 l 401 1014 l 483 1014 z "},"⁰":{"ha":531,"x_min":56,"x_max":469,"o":"m 56 447 m 340 1013 q 469 879 469 1013 l 469 579 q 340 447 469 447 l 186 447 q 56 579 56 447 l 56 879 q 186 1013 56 1013 l 340 1013 m 126 590 q 199 517 126 517 l 328 517 q 399 590 399 517 l 399 868 q 328 942 399 942 l 199 942 q 126 868 126 942 l 126 590 z "},"⁴":{"ha":508,"x_min":31,"x_max":472,"o":"m 31 447 m 286 1013 l 106 614 l 361 614 l 361 1013 l 431 1013 l 431 614 l 472 614 l 472 547 l 431 547 l 431 447 l 361 447 l 361 547 l 31 547 l 31 607 l 221 1013 l 286 1013 z "},"⁵":{"ha":493,"x_min":61,"x_max":447,"o":"m 61 447 m 425 1013 l 425 942 l 133 942 l 133 772 l 322 772 q 447 647 447 772 l 447 585 q 311 447 447 447 l 61 447 l 61 517 l 304 517 q 378 592 378 517 l 378 642 q 311 707 378 707 l 63 707 l 63 1013 l 425 1013 z "},"⁶":{"ha":515,"x_min":56,"x_max":457,"o":"m 56 447 m 443 1013 l 443 942 l 196 942 q 126 868 126 942 l 126 589 q 196 517 126 517 l 329 517 q 393 586 393 517 l 393 646 q 329 714 393 714 l 174 714 l 174 781 l 335 781 q 457 654 457 781 l 457 574 q 335 447 457 447 l 186 447 q 56 579 56 447 l 56 879 q 186 1013 56 1013 l 443 1013 z "},"⁷":{"ha":446,"x_min":33,"x_max":407,"o":"m 33 447 m 407 1013 l 407 951 l 200 447 l 121 447 l 328 942 l 33 942 l 33 1013 l 407 1013 z "},"⁸":{"ha":501,"x_min":43,"x_max":454,"o":"m 43 447 m 318 1013 q 450 879 450 1013 l 450 828 q 410 732 450 760 q 444 696 433 719 q 454 640 454 672 l 454 579 q 324 447 454 447 l 174 447 q 43 579 43 447 l 43 640 q 53 696 43 672 q 89 732 64 719 q 47 828 47 760 l 47 879 q 178 1013 47 1013 l 318 1013 m 114 590 q 185 517 114 517 l 313 517 q 383 590 383 517 l 383 647 q 372 689 383 674 q 338 704 361 704 l 158 704 q 124 689 135 704 q 114 647 114 674 l 114 590 m 115 821 q 126 779 115 794 q 158 764 138 764 l 338 764 q 370 779 360 764 q 381 821 381 794 l 381 869 q 308 943 381 943 l 189 943 q 115 869 115 943 l 115 821 z "},"⁹":{"ha":513,"x_min":51,"x_max":453,"o":"m 51 447 m 322 1013 q 453 881 453 1013 l 453 581 q 322 447 453 447 l 65 447 l 65 518 l 311 518 q 382 590 382 518 l 382 871 q 311 943 382 943 l 181 943 q 115 875 115 943 l 115 813 q 181 746 115 746 l 333 746 l 333 679 l 174 679 q 51 806 51 679 l 51 886 q 174 1013 51 1013 l 322 1013 z "},"₀":{"ha":531,"x_min":56,"x_max":469,"o":"m 340 565 q 469 432 469 565 l 469 132 q 340 0 469 0 l 186 0 q 56 132 56 0 l 56 432 q 186 565 56 565 l 340 565 m 126 143 q 199 69 126 69 l 328 69 q 399 143 399 69 l 399 421 q 328 494 399 494 l 199 494 q 126 421 126 494 l 126 143 z "},"₁":{"ha":293,"x_min":33,"x_max":233,"o":"m 108 565 q 233 439 233 565 l 233 0 l 163 0 l 163 426 q 94 494 163 494 l 33 494 l 33 565 l 108 565 z "},"₂":{"ha":500,"x_min":60,"x_max":446,"o":"m 319 565 q 446 435 446 565 l 446 374 q 331 254 446 254 l 204 254 q 131 176 131 254 l 131 69 l 436 69 l 436 0 l 60 0 l 60 181 q 193 318 60 318 l 319 318 q 376 378 376 318 l 376 429 q 313 494 376 494 l 69 494 l 69 565 l 319 565 z "},"₃":{"ha":468,"x_min":46,"x_max":419,"o":"m 285 565 q 417 432 417 565 l 417 381 q 375 285 417 313 q 410 249 400 272 q 419 193 419 225 l 419 132 q 290 0 419 0 l 46 0 l 46 69 l 281 69 q 350 142 350 69 l 350 197 q 304 251 350 251 l 57 251 l 57 318 l 304 318 q 347 374 347 318 l 347 422 q 278 494 347 494 l 49 494 l 49 565 l 285 565 z "},"₄":{"ha":508,"x_min":31,"x_max":472,"o":"m 286 565 l 106 167 l 361 167 l 361 565 l 431 565 l 431 167 l 472 167 l 472 100 l 431 100 l 431 0 l 361 0 l 361 100 l 31 100 l 31 160 l 221 565 l 286 565 z "},"₅":{"ha":493,"x_min":61,"x_max":447,"o":"m 425 565 l 425 494 l 133 494 l 133 325 l 322 325 q 447 200 447 325 l 447 138 q 311 0 447 0 l 61 0 l 61 69 l 304 69 q 378 144 378 69 l 378 194 q 311 260 378 260 l 63 260 l 63 565 l 425 565 z "},"₆":{"ha":515,"x_min":56,"x_max":457,"o":"m 443 565 l 443 494 l 196 494 q 126 421 126 494 l 126 142 q 196 69 126 69 l 329 69 q 393 139 393 69 l 393 199 q 329 267 393 267 l 174 267 l 174 333 l 335 333 q 457 207 457 333 l 457 126 q 335 0 457 0 l 186 0 q 56 132 56 0 l 56 432 q 186 565 56 565 l 443 565 z "},"₇":{"ha":446,"x_min":33,"x_max":407,"o":"m 407 565 l 407 504 l 200 0 l 121 0 l 328 494 l 33 494 l 33 565 l 407 565 z "},"₈":{"ha":501,"x_min":43,"x_max":454,"o":"m 318 565 q 450 432 450 565 l 450 381 q 410 285 450 313 q 444 249 433 272 q 454 193 454 225 l 454 132 q 324 0 454 0 l 174 0 q 43 132 43 0 l 43 193 q 53 249 43 225 q 89 285 64 272 q 47 381 47 313 l 47 432 q 178 565 47 565 l 318 565 m 114 143 q 185 69 114 69 l 313 69 q 383 143 383 69 l 383 200 q 372 242 383 226 q 338 257 361 257 l 158 257 q 124 242 135 257 q 114 200 114 226 l 114 143 m 115 374 q 126 332 115 347 q 158 317 138 317 l 338 317 q 370 332 360 317 q 381 374 381 347 l 381 422 q 308 496 381 496 l 189 496 q 115 422 115 496 l 115 374 z "},"₉":{"ha":513,"x_min":51,"x_max":453,"o":"m 322 565 q 453 433 453 565 l 453 133 q 322 0 453 0 l 65 0 l 65 71 l 311 71 q 382 143 382 71 l 382 424 q 311 496 382 496 l 181 496 q 115 428 115 496 l 115 365 q 181 299 115 299 l 333 299 l 333 232 l 174 232 q 51 358 51 232 l 51 439 q 174 565 51 565 l 322 565 z "},"€":{"ha":783,"x_min":49,"x_max":747,"o":"m 747 1014 l 708 910 l 383 910 q 243 767 243 910 l 243 631 l 606 631 l 586 574 l 243 574 l 243 440 l 538 440 l 517 383 l 243 383 l 243 247 q 383 104 243 104 l 738 104 l 738 0 l 363 0 q 138 231 138 0 l 138 383 l 49 383 l 49 440 l 138 440 l 138 574 l 49 574 l 49 631 l 138 631 l 138 783 q 363 1014 138 1014 l 747 1014 z "},"₹":{"ha":897,"x_min":71,"x_max":844,"o":"m 843 1014 l 843 929 l 690 929 l 690 722 l 844 722 l 844 647 l 690 647 l 690 546 q 488 329 690 346 l 694 0 l 574 0 l 372 326 l 372 407 l 447 407 q 588 550 588 407 l 588 647 l 71 647 l 71 722 l 588 722 l 588 929 l 71 929 l 71 1014 l 843 1014 z "},"₺":{"ha":926,"x_min":0,"x_max":850,"o":"m 142 735 l 142 1014 l 247 1014 l 247 806 l 574 1025 l 574 936 l 247 718 l 247 518 l 574 736 l 574 649 l 247 431 l 247 104 l 572 104 q 743 279 743 104 l 743 410 l 850 410 l 850 272 q 583 0 850 0 l 142 0 l 142 361 l 0 267 l 0 353 l 142 447 l 142 649 l 0 554 l 0 640 l 142 735 z "},"₽":{"ha":869,"x_min":50,"x_max":817,"o":"m 550 1014 q 817 742 817 1014 l 817 631 q 586 401 817 401 l 228 401 l 228 251 l 785 251 l 785 176 l 228 176 l 228 0 l 122 0 l 122 176 l 50 176 l 50 251 l 122 251 l 122 401 l 50 401 l 50 476 l 122 476 l 122 1014 l 550 1014 m 228 476 l 564 476 q 711 622 711 476 l 711 735 q 540 910 711 910 l 228 910 l 228 476 z "},"℗":{"ha":1086,"x_min":78,"x_max":1008,"o":"m 808 1014 q 1008 808 1008 1014 l 1008 203 q 808 0 1008 0 l 276 0 q 78 206 78 0 l 78 808 q 276 1014 78 1014 l 808 1014 m 140 213 q 283 65 140 65 l 801 65 q 944 210 944 65 l 944 801 q 801 947 944 947 l 283 947 q 140 801 140 947 l 140 213 m 624 767 q 740 647 740 767 l 740 596 q 624 478 740 478 l 463 478 l 463 538 l 618 538 q 678 597 678 538 l 678 644 q 618 704 678 704 l 417 704 l 417 244 l 354 244 l 354 767 l 624 767 z "},"™":{"ha":1238,"x_min":68,"x_max":1150,"o":"m 668 1014 l 871 486 l 1071 1014 l 1150 1014 l 1150 406 l 1085 406 l 1085 878 l 904 406 l 836 406 l 651 881 l 651 406 l 585 406 l 585 1014 l 668 1014 m 494 1014 l 494 944 l 315 944 l 315 406 l 246 406 l 246 944 l 68 944 l 68 1014 l 494 1014 z "},"⅓":{"ha":1076,"x_min":78,"x_max":999,"o":"m 78 0 m 821 1014 l 178 0 l 94 0 l 739 1014 l 821 1014 m 153 1013 q 278 886 278 1013 l 278 447 l 207 447 l 207 874 q 139 942 207 942 l 78 942 l 78 1013 l 153 1013 m 864 565 q 996 432 996 565 l 996 381 q 954 285 996 313 q 989 249 979 272 q 999 193 999 225 l 999 132 q 869 0 999 0 l 625 0 l 625 69 l 860 69 q 929 142 929 69 l 929 197 q 883 251 929 251 l 636 251 l 636 318 l 883 318 q 926 374 926 318 l 926 422 q 857 494 926 494 l 628 494 l 628 565 l 864 565 z "},"⅔":{"ha":1257,"x_min":78,"x_max":1178,"o":"m 78 0 m 1001 1014 l 358 0 l 275 0 l 919 1014 l 1001 1014 m 338 1013 q 464 882 464 1013 l 464 821 q 349 701 464 701 l 222 701 q 149 624 149 701 l 149 517 l 454 517 l 454 447 l 78 447 l 78 628 q 211 765 78 765 l 338 765 q 394 825 394 765 l 394 876 q 331 942 394 942 l 88 942 l 88 1013 l 338 1013 m 1043 565 q 1175 432 1175 565 l 1175 381 q 1133 285 1175 313 q 1168 249 1158 272 q 1178 193 1178 225 l 1178 132 q 1049 0 1178 0 l 804 0 l 804 69 l 1039 69 q 1108 142 1108 69 l 1108 197 q 1063 251 1108 251 l 815 251 l 815 318 l 1063 318 q 1106 374 1106 318 l 1106 422 q 1036 494 1106 494 l 807 494 l 807 565 l 1043 565 z "},"⅕":{"ha":1103,"x_min":78,"x_max":1025,"o":"m 78 0 m 821 1014 l 178 0 l 94 0 l 739 1014 l 821 1014 m 153 1013 q 278 886 278 1013 l 278 447 l 207 447 l 207 874 q 139 942 207 942 l 78 942 l 78 1013 l 153 1013 m 1003 565 l 1003 494 l 711 494 l 711 325 l 900 325 q 1025 200 1025 325 l 1025 138 q 889 0 1025 0 l 639 0 l 639 69 l 882 69 q 956 144 956 69 l 956 194 q 889 260 956 260 l 640 260 l 640 565 l 1003 565 z "},"⅖":{"ha":1283,"x_min":78,"x_max":1206,"o":"m 78 0 m 1001 1014 l 358 0 l 275 0 l 919 1014 l 1001 1014 m 338 1013 q 464 882 464 1013 l 464 821 q 349 701 464 701 l 222 701 q 149 624 149 701 l 149 517 l 454 517 l 454 447 l 78 447 l 78 628 q 211 765 78 765 l 338 765 q 394 825 394 765 l 394 876 q 331 942 394 942 l 88 942 l 88 1013 l 338 1013 m 1183 565 l 1183 494 l 892 494 l 892 325 l 1081 325 q 1206 200 1206 325 l 1206 138 q 1069 0 1206 0 l 819 0 l 819 69 l 1063 69 q 1136 144 1136 69 l 1136 194 q 1069 260 1136 260 l 821 260 l 821 565 l 1183 565 z "},"⅗":{"ha":1238,"x_min":76,"x_max":1160,"o":"m 76 0 m 956 1014 l 313 0 l 229 0 l 874 1014 l 956 1014 m 1138 565 l 1138 494 l 846 494 l 846 325 l 1035 325 q 1160 200 1160 325 l 1160 138 q 1024 0 1160 0 l 774 0 l 774 69 l 1017 69 q 1090 144 1090 69 l 1090 194 q 1024 260 1090 260 l 775 260 l 775 565 l 1138 565 m 315 1013 q 447 879 447 1013 l 447 828 q 406 732 447 760 q 440 696 431 719 q 450 640 450 672 l 450 579 q 321 447 450 447 l 76 447 l 76 517 l 311 517 q 381 589 381 517 l 381 644 q 335 699 381 699 l 88 699 l 88 765 l 335 765 q 378 821 378 765 l 378 869 q 308 942 378 942 l 79 942 l 79 1013 l 315 1013 z "},"⅘":{"ha":1321,"x_min":76,"x_max":1242,"o":"m 76 0 m 1038 1014 l 394 0 l 311 0 l 956 1014 l 1038 1014 m 1219 565 l 1219 494 l 928 494 l 928 325 l 1117 325 q 1242 200 1242 325 l 1242 138 q 1106 0 1242 0 l 856 0 l 856 69 l 1099 69 q 1172 144 1172 69 l 1172 194 q 1106 260 1172 260 l 857 260 l 857 565 l 1219 565 m 332 1013 l 151 614 l 407 614 l 407 1013 l 476 1013 l 476 614 l 518 614 l 518 547 l 476 547 l 476 447 l 407 447 l 407 547 l 76 547 l 76 607 l 267 1013 l 332 1013 z "},"⅙":{"ha":1086,"x_min":78,"x_max":1008,"o":"m 78 0 m 821 1014 l 178 0 l 94 0 l 739 1014 l 821 1014 m 153 1013 q 278 886 278 1013 l 278 447 l 207 447 l 207 874 q 139 942 207 942 l 78 942 l 78 1013 l 153 1013 m 994 565 l 994 494 l 747 494 q 678 421 678 494 l 678 142 q 747 69 678 69 l 881 69 q 944 139 944 69 l 944 199 q 881 267 944 267 l 725 267 l 725 333 l 886 333 q 1008 207 1008 333 l 1008 126 q 886 0 1008 0 l 738 0 q 607 132 607 0 l 607 432 q 738 565 607 565 l 994 565 z "},"⅚":{"ha":1229,"x_min":78,"x_max":1153,"o":"m 78 0 m 964 1014 l 321 0 l 238 0 l 882 1014 l 964 1014 m 1139 565 l 1139 494 l 892 494 q 822 421 822 494 l 822 142 q 892 69 822 69 l 1025 69 q 1089 139 1089 69 l 1089 199 q 1025 267 1089 267 l 869 267 l 869 333 l 1031 333 q 1153 207 1153 333 l 1153 126 q 1031 0 1153 0 l 882 0 q 751 132 751 0 l 751 432 q 882 565 751 565 l 1139 565 m 442 1013 l 442 942 l 150 942 l 150 772 l 339 772 q 464 647 464 772 l 464 585 q 328 447 464 447 l 78 447 l 78 517 l 321 517 q 394 592 394 517 l 394 642 q 328 707 394 707 l 79 707 l 79 1013 l 442 1013 z "},"⅛":{"ha":1083,"x_min":78,"x_max":1006,"o":"m 78 0 m 821 1014 l 178 0 l 94 0 l 739 1014 l 821 1014 m 153 1013 q 278 886 278 1013 l 278 447 l 207 447 l 207 874 q 139 942 207 942 l 78 942 l 78 1013 l 153 1013 m 869 565 q 1001 432 1001 565 l 1001 381 q 961 285 1001 313 q 995 249 985 272 q 1006 193 1006 225 l 1006 132 q 875 0 1006 0 l 725 0 q 594 132 594 0 l 594 193 q 605 249 594 225 q 640 285 615 272 q 599 381 599 313 l 599 432 q 729 565 599 565 l 869 565 m 665 143 q 736 69 665 69 l 864 69 q 935 143 935 69 l 935 200 q 924 242 935 226 q 889 257 913 257 l 710 257 q 676 242 686 257 q 665 200 665 226 l 665 143 m 667 374 q 678 332 667 347 q 710 317 689 317 l 889 317 q 922 332 911 317 q 932 374 932 347 l 932 422 q 860 496 932 496 l 740 496 q 667 422 667 496 l 667 374 z "},"⅜":{"ha":1217,"x_min":76,"x_max":1140,"o":"m 76 0 m 956 1014 l 313 0 l 229 0 l 874 1014 l 956 1014 m 1004 565 q 1136 432 1136 565 l 1136 381 q 1096 285 1136 313 q 1130 249 1119 272 q 1140 193 1140 225 l 1140 132 q 1010 0 1140 0 l 860 0 q 729 132 729 0 l 729 193 q 740 249 729 225 q 775 285 750 272 q 733 381 733 313 l 733 432 q 864 565 733 565 l 1004 565 m 800 143 q 871 69 800 69 l 999 69 q 1069 143 1069 69 l 1069 200 q 1058 242 1069 226 q 1024 257 1047 257 l 844 257 q 810 242 821 257 q 800 200 800 226 l 800 143 m 801 374 q 813 332 801 347 q 844 317 824 317 l 1024 317 q 1056 332 1046 317 q 1067 374 1067 347 l 1067 422 q 994 496 1067 496 l 875 496 q 801 422 801 496 l 801 374 m 315 1013 q 447 879 447 1013 l 447 828 q 406 732 447 760 q 440 696 431 719 q 450 640 450 672 l 450 579 q 321 447 450 447 l 76 447 l 76 517 l 311 517 q 381 589 381 517 l 381 644 q 335 699 381 699 l 88 699 l 88 765 l 335 765 q 378 821 378 765 l 378 869 q 308 942 378 942 l 79 942 l 79 1013 l 315 1013 z "},"⅝":{"ha":1226,"x_min":78,"x_max":1150,"o":"m 78 0 m 964 1014 l 321 0 l 238 0 l 882 1014 l 964 1014 m 442 1013 l 442 942 l 150 942 l 150 772 l 339 772 q 464 647 464 772 l 464 585 q 328 447 464 447 l 78 447 l 78 517 l 321 517 q 394 592 394 517 l 394 642 q 328 707 394 707 l 79 707 l 79 1013 l 442 1013 m 1014 565 q 1146 432 1146 565 l 1146 381 q 1106 285 1146 313 q 1140 249 1129 272 q 1150 193 1150 225 l 1150 132 q 1019 0 1150 0 l 869 0 q 739 132 739 0 l 739 193 q 749 249 739 225 q 785 285 760 272 q 743 381 743 313 l 743 432 q 874 565 743 565 l 1014 565 m 810 143 q 881 69 810 69 l 1008 69 q 1079 143 1079 69 l 1079 200 q 1068 242 1079 226 q 1033 257 1057 257 l 854 257 q 820 242 831 257 q 810 200 810 226 l 810 143 m 811 374 q 822 332 811 347 q 854 317 833 317 l 1033 317 q 1066 332 1056 317 q 1076 374 1076 347 l 1076 422 q 1004 496 1076 496 l 885 496 q 811 422 811 496 l 811 374 z "},"⅞":{"ha":1182,"x_min":78,"x_max":1104,"o":"m 78 0 m 919 1014 l 276 0 l 193 0 l 838 1014 l 919 1014 m 968 565 q 1100 432 1100 565 l 1100 381 q 1060 285 1100 313 q 1094 249 1083 272 q 1104 193 1104 225 l 1104 132 q 974 0 1104 0 l 824 0 q 693 132 693 0 l 693 193 q 703 249 693 225 q 739 285 714 272 q 697 381 697 313 l 697 432 q 828 565 697 565 l 968 565 m 764 143 q 835 69 764 69 l 963 69 q 1033 143 1033 69 l 1033 200 q 1022 242 1033 226 q 988 257 1011 257 l 808 257 q 774 242 785 257 q 764 200 764 226 l 764 143 m 765 374 q 776 332 765 347 q 808 317 788 317 l 988 317 q 1020 332 1010 317 q 1031 374 1031 347 l 1031 422 q 958 496 1031 496 l 839 496 q 765 422 765 496 l 765 374 m 451 1013 l 451 951 l 244 447 l 165 447 l 372 942 l 78 942 l 78 1013 l 451 1013 z "},"∂":{"ha":808,"x_min":61,"x_max":747,"o":"m 331 1021 q 368 1026 350 1024 q 408 1028 386 1028 q 535 1007 474 1028 q 643 934 596 986 q 719 793 690 882 q 747 567 747 704 q 740 431 747 500 q 714 298 732 363 q 667 176 696 233 q 595 76 638 118 q 495 8 553 33 q 364 -17 438 -17 q 239 6 294 -17 q 144 70 183 28 q 83 174 104 113 q 61 314 61 236 q 83 458 61 394 q 146 567 106 522 q 242 635 186 611 q 367 660 299 660 q 542 615 460 660 q 672 489 624 569 q 674 528 674 508 q 675 567 675 547 q 653 754 675 679 q 595 874 632 829 q 509 938 558 919 q 404 957 460 957 q 365 956 385 957 q 331 951 346 954 l 331 1021 m 364 54 q 489 85 436 54 q 577 167 542 117 q 633 283 613 218 q 664 415 654 349 q 538 545 615 501 q 374 589 461 589 q 197 519 261 589 q 133 317 133 449 q 151 200 133 250 q 199 118 168 150 q 272 70 229 86 q 364 54 314 54 z "},"∏":{"ha":1013,"x_min":68,"x_max":944,"o":"m 944 1282 l 944 -246 l 857 -246 l 857 1193 l 156 1193 l 156 -246 l 68 -246 l 68 1282 l 944 1282 z "},"∑":{"ha":1011,"x_min":68,"x_max":943,"o":"m 943 1282 l 943 1193 l 193 1193 l 753 517 l 193 -158 l 943 -158 l 943 -246 l 68 -246 l 68 -178 l 649 517 l 68 1214 l 68 1282 l 943 1282 z "},"−":{"ha":908,"x_min":68,"x_max":840,"o":"m 840 551 l 840 463 l 68 463 l 68 551 l 840 551 z "},"√":{"ha":914,"x_min":29,"x_max":889,"o":"m 236 471 l 411 88 l 799 1014 l 889 1014 l 456 0 l 371 0 l 189 393 l 29 393 l 29 471 l 236 471 z "},"∞":{"ha":1238,"x_min":38,"x_max":1199,"o":"m 618 569 q 742 724 667 667 q 932 782 818 782 q 1036 765 988 782 q 1121 713 1085 747 q 1178 628 1157 679 q 1199 510 1199 576 q 1178 392 1199 443 q 1122 307 1157 342 q 1037 255 1086 272 q 932 238 988 238 q 742 295 818 238 q 618 449 665 353 q 497 295 574 353 q 306 238 419 238 q 200 255 249 238 q 115 307 151 272 q 58 392 79 342 q 38 510 38 443 q 58 628 38 576 q 116 713 79 679 q 201 765 153 747 q 306 782 250 782 q 494 724 419 782 q 618 569 569 667 m 585 508 q 475 651 542 594 q 314 707 408 707 q 170 656 226 707 q 114 510 114 606 q 170 361 114 411 q 314 311 226 311 q 477 367 410 311 q 585 508 544 424 m 653 508 q 760 367 693 424 q 922 311 828 311 q 1068 361 1011 311 q 1125 510 1125 411 q 1067 656 1125 606 q 922 707 1010 707 q 763 651 829 707 q 653 508 696 596 z "},"∫":{"ha":544,"x_min":68,"x_max":476,"o":"m 476 1299 l 476 1210 l 419 1210 q 317 1089 317 1210 l 317 -87 q 142 -285 317 -285 l 68 -285 l 68 -196 l 125 -196 q 229 -75 229 -196 l 229 1101 q 403 1299 229 1299 l 476 1299 z "},"≈":{"ha":908,"x_min":68,"x_max":840,"o":"m 68 236 m 68 369 q 142 424 100 403 q 246 446 183 446 q 358 426 307 446 q 457 383 408 407 q 554 340 506 360 q 660 321 603 321 q 748 341 707 321 q 840 414 789 361 l 840 311 q 763 256 804 276 q 663 236 721 236 q 552 256 603 236 q 453 298 501 275 q 356 340 406 321 q 249 360 307 360 q 158 340 197 360 q 68 271 119 319 l 68 369 m 68 707 q 142 762 100 740 q 246 783 183 783 q 358 764 307 783 q 457 721 408 744 q 554 678 506 697 q 660 658 603 658 q 748 678 707 658 q 840 751 789 699 l 840 649 q 763 594 804 614 q 663 574 721 574 q 552 593 603 574 q 453 635 501 613 q 356 678 406 658 q 249 697 307 697 q 158 677 197 697 q 68 608 119 657 l 68 707 z "},"≠":{"ha":908,"x_min":68,"x_max":840,"o":"m 319 361 l 504 653 l 68 653 l 68 742 l 561 742 l 735 1014 l 817 1014 l 643 742 l 840 742 l 840 653 l 588 653 l 403 361 l 840 361 l 840 272 l 346 272 l 174 0 l 90 0 l 263 272 l 68 272 l 68 361 l 319 361 z "},"≤":{"ha":908,"x_min":68,"x_max":840,"o":"m 68 57 m 840 1039 l 840 947 l 160 646 l 840 344 l 840 253 l 68 603 l 68 690 l 840 1039 m 840 146 l 840 57 l 68 57 l 68 146 l 840 146 z "},"≥":{"ha":908,"x_min":68,"x_max":840,"o":"m 68 57 m 68 253 l 68 344 l 749 646 l 68 947 l 68 1039 l 840 689 l 840 601 l 68 253 m 840 146 l 840 57 l 68 57 l 68 146 l 840 146 z "},"◊":{"ha":833,"x_min":47,"x_max":785,"o":"m 461 1014 l 785 507 l 461 0 l 372 0 l 47 507 l 372 1014 l 461 1014 m 415 949 l 143 507 l 415 65 l 692 507 l 415 949 z "}}}
